<svg width="600.033" height="1200" viewBox="0 0 600.033 1200" xmlns:xlink="http://www.w3.org/1999/xlink" xmlns="http://www.w3.org/2000/svg"><defs><clipPath id="c"><use xlink:href="#a"/></clipPath><clipPath id="d"><use xlink:href="#b"/></clipPath><path d="M0 0h600v600H0V0Z" id="a"/><path d="M0 0h600v600H0V0Z" id="b"/></defs><g clip-path="url(#c)"><path d="M0 0h600v600H0V0Z" fill="none"/><path d="M0 0h600v600H0V0Z" fill="none"/><g fill-rule="evenodd" clip-path="url(#d)"><path d="M0 0h600v600H0V0Z" fill="none"/><path d="m70 604-11.674-15.56m0 0-19.112-26.216m0 0-14.985-21.225m.001 0L9.588 519.58m.001 0-10.771-16.234m0 0-14.06-21.832M102.9 604.47l-9.91-12.295m0 0-7.799-9.931m0 0-7.694-10.014m0 0-7.557-10.12m0 0-7.398-10.235m0 0-5.446-7.745m0 0-5.35-7.819m-.001 0-5.245-7.892m0 0-5.13-7.955m0 0-5.023-8.028m0 0-4.897-8.103m0 0-4.78-8.175m0 0-6.154-11.024m0 0-4.443-8.354m0 0-4.306-8.428m0 0L7.63 459.84m9.8 142.05-6.97-9.76m0 0-6.84-9.86M31.24 601l-18.074-24.872m0 0L-4.57 551m147.18 52.78-6.131-7.044m0 0-8.078-9.467m0 0-6.016-7.147m0 0-7.921-9.601m0 0-9.72-12.138m0 0-5.734-7.374m0 0-7.502-9.911m0 0-7.345-10.034m0 0-5.399-7.612m0 0-8.747-12.839m0 0-8.423-13.056m0 0-4.886-7.931m0 0-3.18-5.342m-.001 0-4.656-8.065m0 0-3.013-5.425m0 0-4.405-8.209m0 0-2.846-5.517m0 0-2.762-5.549m0 0-4.008-8.405m0 0-3.819-8.477m0 0-2.448-5.703m0 0-2.354-5.734m0 0-3.36-8.673m.001 0-2.134-5.817m0 0-2.03-5.858m0 0-1.936-5.888m0 0-2.71-8.89m0 0-2.48-8.952m0 0L7.05 373.12m198.932 230.1-14.368-13.918m0 0-11.809-11.72m0 0-9.356-9.449m0 0-11.512-11.939m0 0-9.059-9.668m0 0-8.916-9.772m0 0-8.737-9.886m0 0-8.559-10.012m0 0-6.285-7.594m0 0-10.19-12.825m0 0-7.893-10.428m0 0-5.737-7.918m0 0-7.393-10.689m0 0-5.345-8.126m0 0-5.166-8.219m0 0-6.583-11.095m0 0-4.69-8.428m0 0-4.464-8.522m0 0-4.238-8.616m0 0-3.988-8.699m0 0-4.916-11.741m0 0-3.369-8.897m.001 0-3.084-8.98m0 0-2.797-9.053m0 0-2.5-9.116m0 0-2.179-9.178m0 0-1.869-9.23m0 0-1.535-9.283m0 0-1.203-9.313m.131 0-1-9.345m.476 0-1-9.366m.81 0-1-9.376m0 0 1-9.376m-.833 0 1-9.366m-.5 0 1-9.345m-.155 0 1.19-9.313m0 0 1.512-9.283m0 0 1.845-9.241m.001 0 2.154-9.178m0 0 2.476-9.126m0 0 1.821-6.042m0 0 1.953-6.011m-.001 0 3.167-8.96m0 0 3.44-8.876m0 0 3.714-8.792m0 0 3.976-8.71m0 0 4.214-8.616m0 0 4.452-8.532m0 0 6.286-11.23m0 0 4.952-8.314m0 0 6.916-10.939m0 0 7.226-10.782m0 0 5.63-7.98m0 0 5.774-7.897m0 0 9.951-12.97m0 0 6.155-7.668m0 0 8.404-10.116m0 0 8.595-9.99m0-.001 8.773-9.865m0 0 11.202-12.168m0 0 9.118-9.616m0 0 9.261-9.522m0 0 11.726-11.783m0 0 14.285-13.98M245 604.75l-11.905-11.204m0 0-16.511-15.826m0 0-13.99-13.701m0 0-9.211-9.234m0 0-6.839-6.974m0 0-11.249-11.741m0 0-11.03-11.906m0 0-8.659-9.657m0 0-8.474-9.77m0 0-8.267-9.915m0 0-8.06-10.059m0 0-5.883-7.645m0 0-7.611-10.337m0 0-5.515-7.852m0 0-5.354-7.954m0 0-6.828-10.761m0 0-4.881-8.192m0 0-4.675-8.284m0 0-5.861-11.215m0 0-4.099-8.522m0 0-3.845-8.625m0 0-3.569-8.718m0 0-3.27-8.811m0 0-2.971-8.893m0 0-2.66-8.976m0 0-2.326-9.048m0 0-1.991-9.11m0 0-1.635-9.171m0 0-1.29-9.214m.079 0-1-9.244m.436 0-1-9.275m.804 0-1-9.285m0 0 1-9.275m-.816 0 1-9.275m-.458 0 1-9.254m-.079 0 1.266-9.213m0 0 1.048-6.119m0 0 1.865-9.13m0 0 2.211-9.069m0 0 2.533-9.007m0 0 2.855-8.924m0 0 3.167-8.842m0 0 3.454-8.748m0 0 3.742-8.667m0 0 4.018-8.563m0 0 2.809-5.643m0 0 2.925-5.613m0 0 6.171-11.08m0 0 4.871-8.192m0 0 5.089-8.089m0 0 5.273-7.995m0 0 7.311-10.503m0 0 5.677-7.769m0 0 7.806-10.214m0 0 8.048-10.059m0 0 8.279-9.914m0 0 8.463-9.781m0 0 8.646-9.657m0 0 8.809-9.543m0 0 11.203-11.772m0 0 11.398-11.638m0 .001L209.33 20.3m0 0 9.361-9.1m0 0 14.185-13.546M7.38 217.48l2.662-9.078m0 0 1.907-6.004m.001 0 4.136-11.934m0 0 2.218-5.91m0 0 2.328-5.889m.001 0 3.66-8.754m-.001 0 2.562-5.795m0 0 4.003-8.618m0 0 2.784-5.701m-.001 0 4.315-8.482m0 0 2.994-5.617m0 0 4.613-8.336m0 0 3.172-5.523m0 0 4.89-8.2m.001 0 3.349-5.428m0 0 8.639-13.409m0 0 5.367-7.929m0 0 5.49-7.865m0 0 9.415-12.938m0 0 11.689-15.26m0 0 12.065-15m0 0 12.399-14.758m0 0 6.31-7.29m0 0 8.517-9.643m0 0L149.84-10.19m126.644 614.45-13.751-13.205m0 0-15.942-15.489m0 0-11.311-11.138m0 0-13.447-13.483m0 0-8.87-9.061m0 0-10.962-11.447m0 0-8.652-9.256m0 0-10.624-11.714m0 0-8.347-9.503m0 0-8.173-9.637m0 0-6.004-7.323m0 0-7.824-9.884m0 0-5.71-7.528m0 0-7.377-10.182m0 0-7.093-10.367m0 0-5.111-7.898m0 0-4.914-8.012m0 0-4.708-8.125m0 0-5.917-11.005m0 0-4.141-8.392m0 0-3.89-8.495m0 0-3.596-8.608m0 0-3.301-8.722m0 0-2.986-8.814m0 0-2.659-8.907m0 0-2.321-8.999m0 0-1.961-9.06m0 0-1.591-9.133m.15 0-1-6.12m.041 0-1-9.214m.433 0-1-9.236m.815 0-1-9.256m0 0 1-9.257m-.782 0 1-6.16m-.64 0 1-9.215m-.129 0 1.253-9.184m0 0 1.624-9.123m0 0 1.994-9.071m0 0 2.354-8.979m0 0 2.691-8.906m0 0 3.019-8.804m0 0 3.323-8.701m0 0 3.629-8.598m0 0 3.912-8.495m0 0 4.173-8.372m0 0 4.413-8.268m0 0 4.653-8.146m0 0 6.538-10.696m0 0 5.122-7.888m0 0 7.116-10.347m0 0 5.535-7.652m0 0 7.595-10.037m0 0 7.835-9.884m0 0 6.015-7.312m0 0 6.124-7.231m0 0 10.417-11.889m0 0 6.364-7.045m0 0 10.766-11.6m0-.001 10.94-11.467m0 0 11.082-11.334m0 0 11.202-11.241m0 0 13.567-13.37m0 0 15.952-15.479m0 0L277.16-9.9M8.05 131.38l4.904-8.963m0 0 5.074-8.874m0 0 5.244-8.796m0 0 5.39-8.73m0 0 5.549-8.629m-.001 0 7.618-11.401m0 0 5.877-8.462m0 0 5.998-8.385m0 0 6.121-8.306m0 0 8.335-10.967m0 0 6.376-8.15m0-.001 8.663-10.756m0 0L96.485 5.027m0 0 9.041-10.489M322.07 604.41l-39.539-37.29m0 0-25.356-24.332m0 0-9.141-8.925m0 0-13.578-13.507m0 0-8.943-9.091m0 0-11.041-11.495m0 0-8.69-9.317m0 0-8.537-9.431m0 0-8.36-9.576m0 0-6.141-7.275m0 0-6.01-7.377m0 0-7.789-9.988m0 0-5.658-7.616m0 0-5.471-7.728m0 0-5.284-7.853m0 0-6.702-10.669m0 0-4.746-8.141m0 0-4.482-8.276m0 0-4.208-8.409m0 0-3.889-8.534m0 0-3.57-8.657m0 0-3.219-8.781m0 0-2.857-8.895m0 0-2.472-8.987m0 0-1.417-6.047m0 0-1.779-9.132m0 0-1.352-9.204m.341 0-1-6.16m.385 0-1-9.266m.835 0-1-9.287m0 0 1-6.18m-.857 0 1-9.277m-.407 0 1.044-9.235m0 0 1.472-9.183m0 0 1.901-9.112m0 0 2.307-9.028m0 0 1.757-5.964m0 0 2.967-8.864m0 0 3.317-8.74m0 0 2.406-5.768m0 0 3.879-8.544m0 0 4.185-8.409m0 0 4.472-8.286m0 0 4.735-8.152m0 0 4.976-8.017m0 0 6.977-10.504m0 0 5.471-7.739m0 0 5.647-7.626m0 0 7.778-9.998m0 0 6.009-7.378m0 0 6.13-7.285m0 0 8.35-9.575m0 0 8.536-9.442m0 0 8.679-9.318m0 0 8.811-9.214m0 0 11.162-11.381m0 0 11.305-11.268m0 0 11.403-11.165m0 0 13.799-13.31m0-.001 13.875-13.228m0 0 37.221-35.083M7.07 71.07l7.194-11.636m0 0 5.539-8.638m0 0 7.548-11.419m0 0 5.779-8.479m0 0 7.856-11.202m0 0 5.996-8.331m0 0L55.112.356m0 0L63.38-10.55m299.982 615-80.52-76.349m0 0-18.25-17.609m0 0-13.536-13.338m0 0-6.703-6.725m0 0-11.048-11.325m0 0-6.529-6.869m0 0-6.452-6.941m0 0-8.463-9.385m0 0-8.245-9.528m0 0-6.04-7.279m0 0-5.877-7.372m0 0-5.715-7.506m0 0-5.518-7.629m0 0-5.291-7.762m0 0-5.062-7.916m0 0-4.791-8.05m0 0-4.497-8.204m0 0L158 379.108m0 0-3.943-8.46m0 0-3.563-8.594m0 0-3.183-8.738m0 0-2.749-8.871m0 0-2.292-8.984m0 0-1.271-6.038m0 0-1.054-6.078m.555 0-1-3.06m.283 0-1-6.119m.511 0-1-6.14m.739 0-1-6.161m.957 0-1-3.08m0 0 1-6.161m-.913 0 1-6.15m-.685 0 1-3.07m-.75 0 1-6.13m-.348 0 1.412-9.138m0 0 1.901-9.066m0 0 2.368-8.964m0 0 2.825-8.85m0 0 2.118-5.822m0 0 3.498-8.625m0 0 2.553-5.678m0 0 4.117-8.378m0 0 4.443-8.225m0 0 4.737-8.08m0 0 5.019-7.937m0 0 5.257-7.793m0 0 5.486-7.65m0 0 5.671-7.526m0 0 5.856-7.403m0 0 6.007-7.289m0 0 8.224-9.56m0 0 8.43-9.394m0 0 6.442-6.952m0 0 8.712-9.168m0 0 6.616-6.798m0 0 8.919-8.994m0 0 8.995-8.912m0 0 20.466-19.858m0 0 22.954-21.87m0 0L364.47-9.53M7.02 16.16l5.14-7.39m0 0 6.96-9.78m392.308 606.002-18.601-17.785m0 0-23.374-22.136m0 0-28.213-26.405m0 0-42.454-39.487m0 0-16.432-15.43m0 0-9.323-8.877m0 0-11.548-11.182m0 0-13.65-13.61m0 0-6.709-6.903m0 0-6.608-6.987m0 0-6.497-7.089m0 0-6.353-7.182m0 0-4.149-4.857m0 0-6.063-7.4m0 0-5.863-7.544m0 0-5.619-7.699m0 0-5.351-7.854m0 0-5.04-8.04m0 0-4.694-8.216m0 0-2.915-5.571m0 0-4.027-8.515m0 0-2.426-5.777m0 0-1.134-2.914m0 0-2.103-5.891m0 0-1.869-5.952m0 0-1.624-6.015m0 0-1.358-6.066m.411 0-1-3.059m.032 0-1-6.128m.31 0-1-6.17m.588 0-1-6.19m.878 0-1-6.201m0 0 1-6.19m-.844 0 1-6.191m-.566 0 1-6.169m-.288 0 1-3.07m-.533 0 1.124-6.107m0 0 1.39-6.067m0 0 1.647-6.004m0 0 1.88-5.953m0 0 2.125-5.88m0 0 1.146-2.914m0 0 2.447-5.767m0 0 4.05-8.505m0 0 4.461-8.319m0 0 3.193-5.446m0 0 5.062-8.03m0 0 5.362-7.854m0 0 5.641-7.679m0 0 5.874-7.534m0 0 4.027-4.939m0 0 6.208-7.307m0 0 6.363-7.182m0 0 4.317-4.723m0 0 6.575-7.017m0 0 6.686-6.924m0 0 6.764-6.852m0 0 9.145-9.042m0 0 16.21-15.626m0 0 14.051-13.259m0 0 51.865-48.282m0 0L374.571 22.4m0 .001L397.911.244m0 0 13.929-13.362m38.88 618.048-11.122-11.302m0 0-22.374-22.492m0 0-15.762-15.653m0 0L381.07 535.48m0 0-27.429-26.462m0 0-18.409-17.525m0 0-36.949-34.935m0 0-16.056-15.375m0 0-9.085-8.876m0 0-11.198-11.241m0 0-8.769-9.142m0 0-8.551-9.339m0 0-8.246-9.575m0 0-3.987-4.885m0 0-5.773-7.487m0 0-3.682-5.09m0 0-3.551-5.184m0 0-5-7.96m0 0-3.115-5.43m0 0-2.898-5.523m0 0-2.679-5.635m0 0-2.43-5.729m0 0-2.167-5.821m0 0-1.885-5.903m0 0-1.579-5.985m0 0-1.275-6.058m.063 0-1-6.098m.401 0-1-6.151m.739 0-1-6.16m0 0 1-6.171m-.902 0 1-6.16m-.564 0 1-6.119m-.216 0 1.111-6.078m0 0 1.438-6.027m0 0 1.743-5.944m0 0 2.037-5.862m0 0 2.309-5.77m0 0 2.56-5.677m0 0 2.8-5.574m0 0 3.017-5.481m0 0 3.202-5.369m0 0 1.678-2.653m0 0 3.464-5.235m0 0 5.49-7.662m0 0 5.773-7.487m0 0 3.987-4.885m0 0 8.257-9.564m0 0 8.551-9.339m0 0 8.78-9.142m0 0 11.187-11.241m0 0 18.246-17.679m0 0 57.667-54.641m0 0 27.462-26.42m0-.001 18.169-17.75m0 0L415.1 23.884m0 0 13.453-13.472m0 0L448.607-9.9m46.023 614.67-26.311-27.94m0 0-24.305-25.453m0 0-26.762-27.557m0 0-22.541-22.757m0 0-22.784-22.539m0 0-18.419-17.864m0 0-18.561-17.729m0 0-39.682-37.448m0 0-11.54-11.145m0 0-6.812-6.781m0 0-6.702-6.873m0 0-4.387-4.666m0 0-6.393-7.122m0 0-4.133-4.863m0 0-3.99-4.956m0 0-3.825-5.08m0 0-3.638-5.194m0 0-3.417-5.319m0 0-3.163-5.463m0 0-2.877-5.609m0 0-1.312-2.851m0 0-2.381-5.806m0 0-1.036-2.945m0 0-1.796-5.992m.272 0-1-3.027m.372 0-1-3.059m.493 0-1-3.069m.603 0-1-3.09m.724 0-1-3.099m.846 0-1-3.111m.967 0-1-3.11m0 0 1-3.11m-.912 0 1-3.1m-.79 0 1-3.1m-.67 0 1-3.079m-.548 0 1-3.059m-.438 0 1-3.048m-.327 0 1.664-6.013m0 0 1-2.976m-.008 0 2.271-5.837m0 0 1.278-2.872m0 0 1.356-2.84m0 0 2.943-5.568m0 0 3.219-5.432m0 0 3.472-5.298m0 0 3.681-5.163m0 0 3.869-5.05m0 0 4.024-4.934m0 0 4.155-4.842m0 0 4.266-4.749m0 0 6.569-6.998m0 0 6.713-6.853m0 0 6.834-6.77m0 0 13.877-13.343m0 0 30.367-28.615m0 0 23.236-22.125m0 0 11.54-11.145m0 0 16.038-15.697m0 0 18.176-18.081m0 0 22.508-22.788m0 0 22.299-22.964m0 0 19.907-20.808m0 0 30.708-32.586M525.3 602.882l-36.143-42.49m0 0L458.82 525.17m0 0-14.255-16.361m0 0-20.499-23.259m0 0-14.453-16.187m0 0-12.48-13.797m0 0-21.022-22.809m0 0-12.761-13.541m0 0-8.595-8.96m0 0-19.559-19.928m0 0-28.719-28.354m0 0-6.568-6.591m0 0-4.324-4.449m0 0-4.24-4.531m0 0-6.13-6.991m0 0-3.853-4.849m0 0-3.592-5.043m0 0-1.671-2.594m0 0-1.577-2.655m0 0-1.473-2.716m0 0-1.347-2.778m0 0-1.222-2.84m0 0-1.065-2.891m.092 0-1-2.942m.269 0-1-2.983m.446 0-1-3.034m.645 0-1-3.055m.833 0-1-3.065m0 0 1-3.075m-.969 0 1-3.065m-.76 0 1-3.045m-.571 0 1-3.024m-.384 0 1-2.973m-.207 0 1-2.921m-.039 0 1.118-2.87m0 0 1.263-2.82m0 0 1.4-2.757m0 0 1.503-2.686m0 0 1.609-2.645m0 0 3.498-5.104m0 0 1.859-2.471m0 0 3.885-4.818m0 0 6.171-6.971m0 0 4.251-4.51m0 0 4.334-4.439m0 0 35.297-34.945m0 0 13.075-13.255m0 0 6.474-6.683m0 0 12.856-13.47m0 0 8.49-9.042m0 0 18.912-20.522m0 0 14.568-16.104m0 0 16.511-18.503m0 0 12.301-13.952m0 0 18.349-21.014m0 0 32.373-37.57m0 0L526-9.787m37.308 614.957-87.784-107.595m0 0-49.673-61.285m0 0-19.785-24.576m0 0-21.646-27.119m0 0-13.662-17.342m0 0-11.597-14.944m0 0-9.508-12.557m0 0-7.421-10.18m0 0-5.365-7.761m0 0-3.397-5.281m0 0-1.623-2.687m0 0-1.525-2.739m0 0-1.406-2.79m0 0-1.234-2.863m.016 0-1-2.956m.373 0-1-3.038m.859 0-1-3.101m0 0 1-3.08m-.654 0 1-3.007m-.21 0 1.092-2.914m0 0 1.32-2.832m0 0 1.461-2.77m0 0 3.212-5.384m0 0 5.203-7.855m0 0 5.474-7.699m0 0 7.497-10.128m0 0 9.551-12.526m0 0 15.523-19.884m0 0 13.717-17.301m0 0 35.546-44.285m0 0 53.665-66.174m0 0L564.13-12.18M544.097 608.1l-55.067-66.787m0 0-43.464-52.326m0 0-23.835-28.445m0 0-15.957-18.901m0 0-26.133-30.563m0 0-14.226-16.325m0 0-10.26-11.59m0 0-8.288-9.196m0 0-8.382-9.125m0 0-8.498-9.003m0 0-8.665-8.881m0 0-17.688-17.384m0 0-4.322-4.44m0 0-2.109-2.271m0 0-2.014-2.353m0 0-1.878-2.444m0 0-1.679-2.587m0 0-1.416-2.729m0 0-1.06-2.872m.371 0-1-2.984m.853 0-1-3.055m0 0 1-3.035m-.643 0 1-2.944m-.182 0 1.227-2.81m0 0 1.532-2.669m0 0 1.773-2.525m0 0 1.941-2.404m0 0 2.067-2.311m0 0 4.311-4.441m0 0 13.303-13.015m0 0 6.557-6.589m0 0 6.462-6.681m0 0 8.498-9.023m0 0 8.372-9.125m0 0 8.277-9.207m0 0 10.26-11.589m0 0 10.166-11.651m0 0 14.142-16.407m0 0 18.044-21.193m0 0 17.95-21.274m0 0 25.797-30.828m0 0 49.35-59.486m0 0L544.8-.25m41.372 605.32-25.189-34.486m0 0-23.194-32.179m0 0-19.411-27.369m0 0-17.416-25.052m0 0-15.423-22.713m0 0-6.755-10.157m0 0-8.331-12.779m0 0-6.572-10.279m0 0-6.46-10.36m0 0-6.318-10.432m0 0-4.649-7.89m0 0-4.527-7.95m0 0-4.415-8.012m0 0-4.263-8.103m0 0-2.736-5.449m0 0-5.199-11.042m0 0-3.581-8.418m0 0-2.207-5.683m0 0-2.035-5.755m0 0-1.841-5.816m0 0-1.607-5.886m0 0-1.364-5.948m0 0-1.068-5.999m.247 0-1-6.059m.583 0-1-6.08m.929 0-1-3.05m0 0 1-3.05m-.99 0 1-6.09m-.715 0 1-6.07m-.369 0 1-6.029m-.044 0 1.251-5.968m0 0 1.516-5.907m0 0 1.76-5.836m0 0 1.963-5.775m0 0 2.147-5.713m0 0 2.309-5.653m0 0 3.703-8.368m0 0 2.615-5.51m0 0 4.089-8.185m0 0 4.273-8.093m0 0 7.437-13.318m0 0 4.618-7.9m0 0 6.298-10.452m0 0 11.343-18.087m0 0 11.638-17.904m0 0 8.464-12.699m0 0 10.275-15.138m0 0 19.125-27.583m0 0 19.39-27.38m0 0 21.384-29.718m0 0L586.64-3.72m-16.527 608.37-27.965-36.33m0 0-24.117-31.586m0 0-27.625-36.583m0 0-20.063-26.973m0 0-18.021-24.676m0 0-14.215-19.88m0 0-8.747-12.515m0 0-6.901-10.087m0 0-6.788-10.148m0 0-5.003-7.668m0 0-8.108-12.93m0 0-4.683-7.861m0 0-3.022-5.291m0 0-2.919-5.352m0 0-2.806-5.413m0 0-3.982-8.225m0 0-2.486-5.565m0 0-2.269-5.645m0 0-1.032-2.853m0 0-1.846-5.797m.216 0-1-2.934m.309 0-1-2.965m.422 0-1-2.984m.546 0-1-2.995m.67 0-1-3.015m.804 0-1-3.035m.938 0-1-3.035m0 0 1-3.036m-.917 0 1-3.024m-.794 0 1-3.015m-.649 0 1-3.005m-.536 0 1-2.974m-.412 0 1-2.955m-.299 0 1-2.934m-.206 0 1.857-5.787m0 0 1.052-2.863m0 0 2.28-5.635m0 0 2.496-5.554m0 0 2.672-5.484m0 0 2.816-5.403m0 0 2.919-5.351m0 0 3.023-5.292m0 0 4.683-7.871m0 0 4.817-7.78m0 0 6.602-10.269m0 0 5.044-7.639m0 0 6.839-10.127m0 0 13.957-20.052m0 0 12.43-17.402m0 0 19.826-27.144m0 0 21.89-29.411m0 0 23.942-31.717m0 0 29.677-38.87m0 0L570.67.23m34.92 577.67-16.81-24.849m0 0-11.62-17.491m0 0-8.21-12.55m0 0-12.97-20.199m0 0-12.7-20.361m0 0-6.23-10.26m0 0-6.13-10.31m0 0-6.03-10.38m0 0-5.91-10.45m0 0-8.58-15.82m0 0-4.14-7.99m0 0-4.04-8.04m0 0-3.9-8.11m0 0-3.76-8.18m0 0-3.59-8.25m0 0-2.29-5.55m0 0-3.26-8.38m0 0-2.04-5.65m0 0-2.85-8.53m0 0-1.73-5.75m0 0-2.33-8.69m0 0-1.36-5.85m0 0-1.18-5.88m.01 0-1-5.91m.2 0-1-5.95m.4 0-1-5.97m.62 0-1-5.99m.83 0-1-6m0 0 1-5.99m-.95 0 1-6m-.73 0 1-5.98m-.52 0 1-5.96m-.3 0 1-5.93m-.11 0 1.09-5.9m0 0 1.26-5.87m0 0 1.43-5.82m0 0 1.59-5.79m0 0 2.65-8.6m0 0 1.92-5.68m0 0 3.1-8.45m0 0 2.2-5.59m0 0 3.46-8.3m0 0 3.65-8.23m0 0 3.8-8.16m0 0 5.29-10.77m0 0 4.11-8.01m0 0 4.21-7.95m0 0 5.76-10.53m0 0 5.9-10.44m0 0 4.51-7.79m0 0 10.76-18.04m0 0 7.85-12.78m0 0 7.97-12.71m0 0 14.6-22.71m0 0 8.23-12.54m0 0 9.97-14.99m0 0L605.5 20.2m-6.8 576.86-20.82-29.37m0 0-20.58-29.54m0 0-16.91-24.78m0 0-6.69-9.96m0 0-11.58-17.519m0 0-12.99-20.181m0 0-6.38-10.16m0 0-7.84-12.79m0 0-4.62-7.73m0 0-6.04-10.36m0 0-5.89-10.46m0 0-4.3-7.91m0 0-5.54-10.64m0 0-3.99-8.07m0 0-2.56-5.42m0 0-3.69-8.21m0 0-2.33-5.53m0 0-2.23-5.57m0 0-3.1-8.45m0 0-1.88-5.7m0 0-2.52-8.64m0 0-1.44-5.82m0 0-1.24-5.87m0 0-1.01-5.92m.24 0-1-5.95m.48 0-1-5.97m.62 0-1-5.99m.89 0-1-6m0 0 1-6m-.85 0 1-5.98m-.58 0 1-5.96m-.32 0 1-5.93m-.08 0 1.15-5.89m0 0 1.37-5.84m0 0 1.56-5.8m0 0 1.73-5.74m0 0 2.9-8.52m0 0 2.11-5.62m0 0 2.22-5.57m0 0 3.55-8.27m0 0 2.47-5.47m0 0 5.2-10.81m0 0 4.08-8.02m0 0 4.21-7.96m0 0 5.79-10.51m0 0 4.45-7.82m0 0 4.54-7.77m0 0 6.16-10.3m0 0 4.69-7.68m0 0 7.94-12.73m0 0 6.45-10.12m0 0 8.16-12.58m0 0 14.92-22.51m0 0 10.09-14.91m0 0 11.87-17.31m0 0 18.87-27.08m0 0L600.22.47M605.49 524l-10.72-18.059m0 0-10.45-18.22m0 0-8.7-15.751m0 0-8.42-15.909m0 0-4.09-8.02m0 0-3.99-8.06m0 0-6.44-13.551m0 0-3.7-8.209m0 0-3.57-8.261m0 0-2.3-5.539m0 0-3.32-8.37m0 0-3.14-8.43m0 0-1.99-5.661m0 0-3.69-11.42m0 0-1.7-5.75m0 0-1.58-5.789m0 0-1.46-5.821m0 0-1.95-8.78m0 0-1.14-5.9m.01 0-1-5.91m.17 0-1-5.94m.31 0-1-5.97m.48 0-1-5.969m.64 0-1-5.991m.78 0-1-9m0 0 1-9m-.84 0 1-5.99m-.68 0 1-5.98m-.52 0 1-5.96m-.36 0 1-5.95m-.2 0 1-5.92m-.04 0 1.09-5.9m0 0 1.24-5.87m0 0 1.37-5.84m0 0 1.49-5.82m0 0 2.46-8.65m0 0 1.77-5.73m0 0 1.88-5.7m0 0 1.96-5.67m0 0 3.11-8.45m0 0 3.29-8.38m0 0 2.29-5.54m0 0 3.54-8.28m0 0 2.44-5.48m0 0 6.34-13.59m0 0 3.95-8.09m0 0 4.04-8.04m0 0 4.13-8m0 0 4.22-7.95m0 0 5.72-10.54m0 0 4.38-7.87m0 0 10.42-18.23m0 0 12.25-20.64m-.07 392.7-6.43-13.549m0 0-4.95-10.941m0 0-4.75-11.019m0 0-4.53-11.11m0 0-4.28-11.21m0 0-3.99-11.311m0 0-3.69-11.42m0 0-2.53-8.64m0 0-2.33-8.69m0 0-1.42-5.83m0 0-1.31-5.86m0 0-1.75-8.819m0 0-1.49-8.881m0 0-1.2-8.92m.1 0-1-8.949m.57 0-1-5.991m.71 0-1-5.99m.83 0-1-9m0 0 1-9m-.85 0 1-8.99m-.53 0 1-8.96m-.22 0 1-5.96m-.31 0 1-5.94m-.17 0 1.47-8.88m0 0 1.13-5.9m0 0 1.24-5.86m0 0 2.08-8.76m0 0 2.31-8.7m0 0 3.41-11.5m0 0 3.75-11.4m0 0 3.02-8.48m0 0 4.27-11.22m0 0 4.52-11.11m0 0 4.74-11.03m0 0 6.2-13.65m0 0 5.16-10.84m-2.55 244.61-2.8-11.66m0 0-1.84-8.81m0 0-1.1-5.9m.01 0-1-5.92m.12 0-1-5.93m.23 0-1-5.95m.35 0-1-5.97m.47 0-1-5.98m.59 0-1-5.98m.72 0-1-5.99m.81 0-1-9m0 0 1-6m-.97 0 1-6m-.85 0 1-8.99m-.53 0 1-5.98m-.53 0 1-5.97m-.42 0 1-5.96m-.29 0 1-5.94m-.18 0 1-5.93m-.07 0 1.05-5.91m0 0 1.15-5.89m0 0 1.25-5.87m0 0 1.34-5.84" fill="none" stroke="#212529" stroke-width="3"/><path d="M16.66 209.184v72.727h6.64v-27.805h16.939c5.137 0 9.434-.989 12.89-2.966 3.457-1.976 6.061-4.663 7.813-8.061 1.752-3.397 2.628-7.214 2.628-11.452 0-4.238-.876-8.049-2.628-11.435-1.752-3.385-4.368-6.066-7.848-8.043-3.48-1.977-7.8-2.965-12.962-2.965H16.66Zm138.387 72.727H133.74v-72.727h22.585c6.937 0 12.873 1.444 17.809 4.332 4.936 2.888 8.718 7.031 11.346 12.429 2.628 5.398 3.942 11.873 3.942 19.425-.024 11.434-3.025 20.383-9.002 26.846-5.978 6.463-14.436 9.695-25.373 9.695Zm50.426-72.727v72.727h25.888c7.813 0 13.571-1.805 17.276-5.416 3.705-3.61 5.558-8.161 5.558-13.654 0-3.693-.71-6.865-2.131-9.517-1.421-2.651-3.226-4.717-5.416-6.196-2.189-1.48-4.468-2.303-6.835-2.468v-.569c3.243-.876 5.978-2.604 8.203-5.184 2.225-2.581 3.338-6.144 3.338-10.689 0-5.469-1.782-10.009-5.345-13.619-3.563-3.61-8.895-5.415-15.998-5.415h-24.538ZM40.061 248.14H23.3v-32.99h16.654c5.753 0 10.038 1.55 12.856 4.652 2.817 3.101 4.226 7.043 4.226 11.825 0 4.758-1.403 8.7-4.209 11.825-2.805 3.125-7.06 4.688-12.766 4.688Zm100.32 27.805h14.275c9.375 0 16.442-2.723 21.201-8.168 4.758-5.445 7.137-12.914 7.137-22.407-.023-9.423-2.331-16.815-6.924-22.177-4.593-5.362-11.305-8.043-20.135-8.043h-15.554v60.795Zm90.234-33.913h-18.501V215.15h17.897c4.972 0 8.713 1.213 11.222 3.64 2.509 2.426 3.764 5.569 3.764 9.428 0 4.001-1.32 7.303-3.959 9.907-2.64 2.605-6.114 3.907-10.423 3.907ZM78.786 302.028c1.101.225 2.267.337 3.498.337 6.937 0 11.849-3.941 14.737-11.825l23.083-63.174h-6.854l-16.193 46.2h-.497l-16.194-46.2h-6.853l20.064 55.078-1.989 5.539c-1.515 4.12-3.374 6.682-5.575 7.688-2.202 1.007-4.913 1.001-8.132-.017l-1.705 5.575c.639.308 1.509.574 2.61.799Zm152.575-26.083h-19.247v-28.018h19.531c3.267 0 6.113.662 8.54 1.988 2.427 1.326 4.309 3.119 5.647 5.38 1.337 2.261 2.006 4.776 2.006 7.546 0 3.765-1.343 6.89-4.03 9.375-2.687 2.486-6.836 3.729-12.447 3.729Zm63.488-66.761-12.073 72.727h15.376l3.942-23.579h12.89c5.611 0 10.559-1.03 14.844-3.09 4.285-2.06 7.777-4.93 10.476-8.611 2.699-3.682 4.439-7.949 5.22-12.802.805-4.83.485-9.097-.959-12.802s-3.93-6.605-7.457-8.7c-3.528-2.096-8.049-3.143-13.565-3.143h-28.694Zm137.358 72.727h-26.136l12.074-72.727h25.639c7.315 0 13.4 1.497 18.253 4.492s8.268 7.262 10.245 12.802c1.977 5.54 2.326 12.157 1.048 19.851-1.231 7.433-3.682 13.808-7.351 19.123-3.67 5.314-8.369 9.386-14.098 12.215-5.729 2.83-12.287 4.244-19.674 4.244Zm58.665-72.727-12.074 72.727h31.073c5.445 0 10.174-.876 14.187-2.628 4.013-1.752 7.226-4.143 9.641-7.173 2.415-3.03 3.942-6.463 4.581-10.298.592-3.575.343-6.665-.746-9.269s-2.734-4.628-4.936-6.072-4.676-2.214-7.422-2.308l.142-.711c3.883-.852 7.292-2.604 10.227-5.255 2.936-2.652 4.771-6.108 5.505-10.37.923-5.445-.349-9.913-3.818-13.405-3.468-3.492-9.215-5.238-17.241-5.238h-29.119Zm21.769 30.433h-11.4l2.983-18.004h11.648c3.385 0 5.877.799 7.475 2.397 1.598 1.598 2.184 3.723 1.758 6.374-.45 2.865-1.859 5.12-4.226 6.765-2.367 1.645-5.113 2.468-8.238 2.468Zm-198.118 6.392h-10.37l4.049-24.254h10.369c4.451 0 7.564 1.101 9.339 3.302 1.776 2.202 2.368 5.126 1.776 8.772-.592 3.598-2.154 6.528-4.687 8.789-2.534 2.261-6.025 3.391-10.476 3.391Zm109.126 22.727h9.446c6.865 0 12.441-1.941 16.726-5.823 4.285-3.883 7.114-9.967 8.487-18.253 1.326-7.908.557-13.601-2.308-17.081-2.865-3.48-7.706-5.22-14.524-5.22H431.32l-7.671 46.377Zm-75.781 33.185c1.61.296 3.385.444 5.327.444 5.587 0 10.197-1.319 13.831-3.959 3.634-2.64 6.599-6.173 8.896-10.6l31.214-60.44h-16.583l-18.076 40.127h-.568l-4.616-40.127h-15.341l10.227 56.001-1.35 2.308c-1.467 2.534-3.136 4.007-5.007 4.421-1.87.414-4.072.219-6.605-.586l-5.326 11.293c1.041.45 2.367.822 3.977 1.118Zm160.973-32.581h-12.536l3.161-19.318h12.855c3.741 0 6.516.959 8.327 2.876 1.811 1.918 2.48 4.38 2.007 7.387-.45 2.722-1.799 4.912-4.048 6.569s-5.505 2.486-9.766 2.486ZM71.504 318.184v72.727h17.578v-22.585h11.932c5.564 0 10.364-1.03 14.4-3.09 4.037-2.059 7.156-4.965 9.357-8.718 2.202-3.752 3.303-8.138 3.303-13.157 0-4.995-1.077-9.381-3.232-13.157-2.154-3.776-5.214-6.723-9.179-8.842-3.966-2.119-8.671-3.178-14.116-3.178H71.504Zm151.634 72.727h-26.882v-72.727h26.846c7.41 0 13.796 1.45 19.159 4.35 5.362 2.9 9.499 7.061 12.411 12.482 2.912 5.422 4.368 11.92 4.368 19.496 0 7.576-1.45 14.08-4.35 19.513-2.901 5.434-7.038 9.606-12.412 12.518-5.374 2.912-11.754 4.368-19.14 4.368Zm46.129-72.727v72.727h32.635c5.374 0 9.943-.882 13.707-2.646 3.765-1.763 6.641-4.178 8.63-7.244 1.989-3.066 2.983-6.552 2.983-10.458 0-3.504-.758-6.54-2.273-9.109-1.515-2.568-3.522-4.581-6.019-6.037-2.498-1.455-5.215-2.243-8.15-2.361v-.71c4.001-.829 7.268-2.628 9.801-5.398 2.533-2.77 3.8-6.226 3.8-10.369 0-5.493-2.089-9.932-6.268-13.317s-10.352-5.078-18.519-5.078h-30.327Zm27.308 29.9h-9.73V332.14h10.014c2.936 0 5.268.704 6.996 2.113 1.728 1.408 2.592 3.32 2.592 5.735 0 2.557-.923 4.545-2.769 5.966-1.847 1.42-4.214 2.13-7.103 2.13Zm-198.828 6.392h-8.665v-22.123h8.665c3.954 0 6.96.988 9.02 2.965 2.06 1.977 3.089 4.658 3.089 8.043 0 3.362-1.029 6.055-3.089 8.079-2.06 2.024-5.066 3.036-9.02 3.036Zm116.087 21.449h8.629c6.132 0 10.825-1.604 14.08-4.812 3.255-3.207 4.883-8.741 4.883-16.601 0-7.836-1.639-13.352-4.918-16.548-3.279-3.196-8.044-4.794-14.294-4.794h-8.38v42.755Zm-77.166 33.7c2.864 1.16 6.415 1.74 10.653 1.74 6.25 0 11.056-1.426 14.418-4.279 3.361-2.852 5.8-6.504 7.315-10.955l20.561-59.765h-18.288l-10.192 38.92h-.568l-10.05-38.92h-18.182l19.389 56.534-.674 1.633c-.829 2.036-2.155 3.167-3.978 3.391-1.822.225-4.012-.077-6.569-.905l-3.835 12.606Zm161.044-32.883h-10.867v-17.329h11.186c3.362 0 6.008.822 7.937 2.468 1.929 1.645 2.894 3.864 2.894 6.658 0 2.58-.905 4.593-2.716 6.037-1.811 1.444-4.623 2.166-8.434 2.166Zm52.799-58.558v72.727h4.439v-29.013h18.004c4.593 0 8.541-.947 11.844-2.841 3.302-1.894 5.841-4.492 7.617-7.794 1.775-3.303 2.663-7.037 2.663-11.204 0-4.214-.888-7.967-2.663-11.257-1.776-3.291-4.315-5.883-7.617-7.777-3.303-1.894-7.263-2.841-11.879-2.841h-22.408Zm135.192 72.727h-20.17v-72.727h21.733c6.818 0 12.654 1.438 17.507 4.314 4.853 2.877 8.576 7.014 11.168 12.412 2.593 5.397 3.877 11.86 3.853 19.389-.023 11.529-3.006 20.514-8.949 26.953-5.942 6.439-14.323 9.659-25.142 9.659Zm51.421-72.727v72.727h25.532c7.031 0 12.346-1.752 15.945-5.256 3.599-3.503 5.398-8.037 5.398-13.6 0-3.528-.663-6.617-1.989-9.269-1.326-2.651-3.06-4.752-5.202-6.303-2.143-1.551-4.469-2.421-6.978-2.61v-.426c3.385-.876 6.12-2.741 8.203-5.593 2.083-2.853 3.125-6.493 3.125-10.92 0-5.587-1.752-10.109-5.256-13.566-3.504-3.456-8.558-5.184-15.163-5.184h-23.615Zm-164.276 39.595H354.95v-35.476h17.862c5.611 0 9.991 1.669 13.14 5.007 3.148 3.338 4.723 7.588 4.723 12.749 0 5.137-1.575 9.375-4.723 12.713-3.149 3.338-7.517 5.007-13.104 5.007Zm97.124 29.013h15.554c9.73 0 17.158-2.877 22.283-8.629 5.125-5.753 7.664-13.708 7.617-23.864-.023-9.991-2.468-17.821-7.333-23.491-4.865-5.67-11.867-8.505-21.005-8.505h-17.116v64.489Zm92.294-34.837h-20.703v-29.652h19.176c5.161 0 9.138 1.308 11.931 3.924 2.794 2.616 4.191 6.185 4.191 10.707 0 4.167-1.273 7.712-3.818 10.635-2.545 2.924-6.137 4.386-10.777 4.386ZM410.845 411.01c1.066.237 2.143.355 3.232.355 6.202 0 10.665-3.728 13.387-11.186l23.012-63.813h-4.652l-17.33 48.97h-.355l-17.329-48.97h-4.652l19.993 55.291-2.486 6.818c-1.492 4.12-3.427 6.771-5.806 7.954-2.38 1.184-5.25 1.137-8.612-.142l-1.278 3.8c.852.379 1.811.687 2.876.923Zm151.811-24.218h-21.093v-30.789h21.235c3.338 0 6.274.699 8.807 2.096 2.533 1.396 4.516 3.308 5.948 5.735 1.433 2.426 2.149 5.167 2.149 8.221 0 4.332-1.474 7.871-4.421 10.617-2.948 2.747-7.156 4.12-12.625 4.12ZM19.66 449.184v72.727h6.64v-27.805h16.939c5.137 0 9.434-.989 12.89-2.966 3.457-1.976 6.061-4.663 7.813-8.061 1.752-3.397 2.628-7.214 2.628-11.452 0-4.238-.876-8.049-2.628-11.435-1.752-3.385-4.368-6.066-7.848-8.043-3.48-1.977-7.8-2.965-12.962-2.965H19.66Zm138.387 72.727H136.74v-72.727h22.585c6.937 0 12.873 1.444 17.809 4.332 4.936 2.888 8.718 7.031 11.346 12.429 2.628 5.398 3.942 11.873 3.942 19.425-.024 11.435-3.025 20.383-9.002 26.846-5.978 6.464-14.436 9.695-25.373 9.695Zm50.426-72.727v72.727h25.888c7.813 0 13.571-1.805 17.276-5.415 3.705-3.611 5.558-8.162 5.558-13.655 0-3.693-.71-6.865-2.131-9.517-1.421-2.651-3.226-4.717-5.416-6.196-2.189-1.48-4.468-2.303-6.835-2.468v-.569c3.243-.876 5.978-2.604 8.203-5.184 2.225-2.581 3.338-6.144 3.338-10.689 0-5.469-1.782-10.008-5.345-13.619-3.563-3.61-8.895-5.415-15.998-5.415h-24.538ZM43.061 488.14H26.3v-32.99h16.655c5.752 0 10.037 1.55 12.855 4.652 2.817 3.101 4.226 7.043 4.226 11.825 0 4.759-1.403 8.7-4.209 11.825-2.805 3.125-7.06 4.688-12.766 4.688Zm100.32 27.805h14.275c9.375 0 16.442-2.722 21.201-8.167 4.758-5.446 7.137-12.915 7.137-22.408-.023-9.422-2.331-16.815-6.924-22.177-4.593-5.362-11.305-8.043-20.135-8.043h-15.554v60.795Zm90.234-33.913h-18.501V455.15h17.897c4.972 0 8.713 1.213 11.222 3.64 2.509 2.426 3.764 5.569 3.764 9.428 0 4.001-1.32 7.303-3.959 9.908-2.64 2.604-6.114 3.906-10.423 3.906ZM81.786 542.028c1.101.225 2.267.337 3.498.337 6.937 0 11.849-3.941 14.737-11.825l23.083-63.174h-6.854l-16.193 46.2h-.497l-16.193-46.2h-6.854l20.064 55.078-1.989 5.539c-1.515 4.12-3.373 6.682-5.575 7.688-2.202 1.007-4.913 1.001-8.132-.017l-1.705 5.575c.639.308 1.509.574 2.61.799Zm152.575-26.083h-19.247v-28.018h19.531c3.267 0 6.113.663 8.54 1.988 2.427 1.326 4.309 3.119 5.647 5.38 1.337 2.261 2.006 4.777 2.006 7.546 0 3.765-1.343 6.89-4.03 9.375-2.687 2.486-6.836 3.729-12.447 3.729Zm64.341-66.761-12.074 72.727h13.175l4.084-24.574h13.884c5.635 0 10.541-1.035 14.72-3.107 4.178-2.071 7.552-4.918 10.121-8.54 2.568-3.623 4.231-7.766 4.989-12.429.781-4.641.497-8.772-.852-12.394-1.35-3.622-3.753-6.475-7.209-8.558-3.457-2.083-7.978-3.125-13.566-3.125h-27.272Zm134.801 72.727h-25l12.074-72.727h24.787c7.221 0 13.21 1.486 17.968 4.457 4.759 2.971 8.103 7.22 10.032 12.748 1.93 5.528 2.256 12.127.977 19.798-1.231 7.457-3.658 13.855-7.28 19.194-3.622 5.338-8.274 9.428-13.956 12.269-5.682 2.841-12.216 4.261-19.602 4.261Zm59.517-72.727-12.074 72.727h29.439c5.54 0 10.293-.864 14.258-2.592 3.965-1.728 7.114-4.09 9.446-7.085 2.332-2.994 3.806-6.374 4.421-10.138.615-3.67.379-6.812-.71-9.428-1.089-2.616-2.705-4.647-4.848-6.091-2.142-1.444-4.492-2.225-7.049-2.343l.142-.711c3.67-.852 6.937-2.545 9.802-5.078 2.864-2.533 4.675-6.001 5.433-10.405.923-5.421-.278-9.919-3.605-13.494-3.326-3.575-8.931-5.362-16.814-5.362H493.02Zm21.129 30.93h-13.033l3.268-20.064h13.352c3.859 0 6.628.912 8.309 2.735 1.681 1.823 2.273 4.143 1.776 6.96-.473 3.172-2.018 5.694-4.634 7.564-2.616 1.87-5.629 2.805-9.038 2.805Zm-196.342 6.392h-12.109l4.367-26.314h12.074c4.948 0 8.345 1.208 10.192 3.623 1.847 2.414 2.462 5.563 1.847 9.446-.616 3.859-2.267 7.031-4.954 9.517-2.687 2.485-6.493 3.728-11.417 3.728Zm105.753 24.006h10.618c7.575 0 13.677-2.16 18.306-6.481 4.628-4.32 7.64-10.754 9.037-19.3 1.487-8.717.399-15.074-3.264-19.071-3.102-3.384-8.051-5.077-14.846-5.077h-11.542l-8.309 49.929Zm-73.349 31.446c1.432.272 3.024.408 4.776.408 4.948 0 9.145-1.214 12.589-3.64 3.445-2.427 6.327-5.854 8.647-10.28l31.925-61.08h-14.169l-19.496 41.264h-.568l-5.682-41.264h-13.139l10.44 55.504-1.633 2.948c-1.752 3.077-3.593 4.912-5.522 5.504-1.93.592-4.22.485-6.872-.319l-4.687 10.014c.828.354 1.959.668 3.391.941Zm159.925-31.055h-14.169l3.516-21.307h14.56c4.072 0 7.096 1.101 9.073 3.302 1.977 2.202 2.705 4.925 2.184 8.168-.474 2.865-1.93 5.22-4.368 7.067-2.439 1.846-6.037 2.77-10.796 2.77ZM76.99 558.184v72.727h10.973v-25.568h14.915c5.634 0 10.316-1.036 14.045-3.107 3.728-2.072 6.522-4.889 8.38-8.452 1.859-3.563 2.788-7.582 2.788-12.056 0-4.475-.923-8.487-2.77-12.038-1.847-3.552-4.634-6.357-8.363-8.417-3.728-2.059-8.41-3.089-14.044-3.089H76.99Zm144.105 72.727h-23.544v-72.727h24.29c7.149 0 13.275 1.45 18.377 4.35 5.102 2.9 9.02 7.055 11.754 12.465 2.735 5.409 4.102 11.89 4.102 19.442 0 7.576-1.373 14.086-4.119 19.531-2.747 5.445-6.73 9.63-11.95 12.554-5.22 2.923-11.523 4.385-18.91 4.385Zm48.615-72.727v72.727h27.877c5.634 0 10.262-.858 13.885-2.574 3.622-1.717 6.303-4.049 8.043-6.996 1.74-2.948 2.61-6.28 2.61-9.997 0-3.764-.758-6.96-2.273-9.588-1.515-2.628-3.426-4.658-5.735-6.09-2.308-1.432-4.669-2.207-7.084-2.326v-.71c3.338-.852 6.214-2.486 8.629-4.901 2.415-2.414 3.622-5.894 3.622-10.44 0-3.598-.834-6.836-2.503-9.712-1.669-2.877-4.203-5.161-7.6-6.854-3.397-1.693-7.676-2.539-12.837-2.539H269.71Zm25.675 31.463h-14.702v-22.124h14.986c4.356 0 7.588 1.012 9.695 3.037 2.107 2.024 3.16 4.551 3.16 7.581 0 3.504-1.267 6.298-3.8 8.381s-5.646 3.125-9.339 3.125Zm-193.501 6.392H87.963v-28.445h13.779c5.445 0 9.357 1.326 11.736 3.978 2.379 2.651 3.569 6.037 3.569 10.156 0 4.119-1.184 7.534-3.551 10.245-2.368 2.711-6.238 4.066-11.612 4.066Zm106.64 25.284h11.967c8.286 0 14.489-2.326 18.608-6.978 4.119-4.652 6.179-11.287 6.179-19.904 0-8.57-2.03-15.157-6.09-19.762-4.06-4.605-10.067-6.907-18.022-6.907h-12.642v53.551Zm-66.086 29.67c1.302.248 2.746.373 4.332.373 4.38 0 7.99-1.125 10.831-3.373 2.841-2.25 5.054-5.517 6.641-9.802l22.478-61.825h-11.399l-13.814 42.329h-.568l-13.814-42.329h-11.364l19.958 55.255-1.314 3.623c-1.35 3.622-3.013 5.77-4.989 6.445-1.977.674-4.422.609-7.334-.195l-2.556 8.7c.639.284 1.61.55 2.912.799Zm154.083-29.492h-15.838v-23.296h16.229c4.403 0 7.889 1.237 10.458 3.711 2.569 2.474 3.853 5.439 3.853 8.896 0 3.054-1.13 5.599-3.391 7.635-2.261 2.036-6.032 3.054-11.311 3.054Zm56.991-63.317v72.727h4.438v-29.013h18.005c4.592 0 8.54-.947 11.843-2.841 3.302-1.893 5.841-4.492 7.617-7.794 1.775-3.303 2.663-7.037 2.663-11.204 0-4.214-.888-7.966-2.663-11.257-1.776-3.291-4.315-5.883-7.617-7.777-3.303-1.894-7.262-2.841-11.879-2.841h-22.407Zm135.191 72.727h-20.17v-72.727h21.733c6.818 0 12.654 1.438 17.507 4.315 4.853 2.876 8.576 7.013 11.168 12.411 2.593 5.398 3.877 11.861 3.853 19.389-.023 11.529-3.006 20.514-8.949 26.953-5.942 6.439-14.323 9.659-25.142 9.659Zm51.421-72.727v72.727h25.532c7.031 0 12.346-1.752 15.945-5.256 3.599-3.503 5.398-8.037 5.398-13.6 0-3.528-.663-6.617-1.989-9.269-1.326-2.651-3.06-4.752-5.202-6.303-2.143-1.551-4.469-2.421-6.978-2.61v-.426c3.385-.876 6.12-2.741 8.203-5.593 2.083-2.853 3.125-6.493 3.125-10.92 0-5.587-1.752-10.109-5.256-13.565-3.504-3.457-8.558-5.185-15.163-5.185h-23.615Zm-164.276 39.595H357.95v-35.476h17.863c5.61 0 9.99 1.669 13.139 5.007 3.148 3.338 4.723 7.588 4.723 12.749 0 5.137-1.575 9.375-4.723 12.713-3.149 3.338-7.517 5.007-13.104 5.007Zm97.124 29.013h15.554c9.73 0 17.158-2.877 22.283-8.629 5.125-5.753 7.664-13.708 7.617-23.864-.023-9.991-2.468-17.821-7.333-23.491-4.865-5.67-11.867-8.505-21.005-8.505h-17.116v64.489Zm92.294-34.837h-20.703v-29.652h19.176c5.161 0 9.138 1.308 11.931 3.924 2.794 2.616 4.191 6.185 4.191 10.707 0 4.167-1.273 7.712-3.818 10.636-2.545 2.923-6.137 4.385-10.777 4.385Zm-151.421 59.056c1.066.236 2.143.355 3.232.355 6.202 0 10.665-3.729 13.388-11.186l23.011-63.814h-4.652l-17.33 48.97h-.355l-17.329-48.97h-4.652l19.993 55.291-2.486 6.819c-1.492 4.119-3.427 6.77-5.806 7.954-2.379 1.184-5.25 1.136-8.612-.142l-1.278 3.8c.852.378 1.811.686 2.876.923Zm151.811-24.219h-21.093v-30.788h21.235c3.338 0 6.274.698 8.807 2.095 2.533 1.396 4.516 3.308 5.948 5.735 1.433 2.426 2.149 5.167 2.149 8.221 0 4.332-1.474 7.871-4.421 10.618-2.948 2.746-7.156 4.119-12.625 4.119ZM76.99-42.864v72.727h10.973V4.296h14.915c5.634 0 10.316-1.036 14.045-3.107 3.728-2.072 6.522-4.889 8.38-8.452 1.859-3.563 2.788-7.582 2.788-12.056 0-4.474-.923-8.487-2.77-12.038-1.847-3.552-4.634-6.357-8.363-8.417-3.729-2.06-8.41-3.09-14.045-3.09H76.99Zm144.105 72.727h-23.544v-72.727h24.29c7.149 0 13.275 1.45 18.377 4.35 5.102 2.9 9.02 7.055 11.754 12.465 2.735 5.41 4.102 11.89 4.102 19.442 0 7.576-1.373 14.086-4.119 19.531-2.747 5.445-6.73 9.63-11.95 12.554-5.22 2.923-11.523 4.385-18.91 4.385Zm48.615-72.727v72.727h27.877c5.634 0 10.262-.858 13.885-2.574 3.622-1.717 6.303-4.049 8.043-6.996 1.74-2.947 2.61-6.28 2.61-9.996 0-3.765-.758-6.96-2.273-9.589-1.515-2.628-3.426-4.658-5.735-6.09-2.308-1.432-4.669-2.207-7.084-2.326v-.71c3.338-.852 6.214-2.486 8.629-4.9 2.415-2.415 3.622-5.895 3.622-10.44 0-3.6-.834-6.837-2.503-9.713-1.669-2.877-4.203-5.161-7.6-6.854-3.397-1.693-7.676-2.539-12.837-2.539H269.71Zm25.675 31.463h-14.702v-22.124h14.986c4.356 0 7.588 1.012 9.695 3.037 2.107 2.024 3.16 4.551 3.16 7.581 0 3.504-1.267 6.298-3.8 8.381s-5.646 3.125-9.339 3.125ZM101.883-5.009h-13.92v-28.444h13.778c5.446 0 9.358 1.325 11.737 3.977 2.379 2.651 3.569 6.037 3.569 10.156 0 4.12-1.184 7.534-3.551 10.245-2.368 2.71-6.238 4.066-11.613 4.066Zm106.641 25.285h11.967c8.286 0 14.489-2.326 18.608-6.978 4.119-4.652 6.179-11.287 6.179-19.904 0-8.57-2.03-15.157-6.09-19.762-4.06-4.605-10.067-6.907-18.022-6.907h-12.642v53.551Zm-66.087 29.67c1.303.248 2.747.373 4.333.373 4.38 0 7.99-1.125 10.831-3.373 2.841-2.25 5.054-5.517 6.64-9.802l22.479-61.826h-11.399l-13.814 42.33h-.568l-13.814-42.33h-11.364l19.958 55.256-1.314 3.622c-1.35 3.622-3.013 5.77-4.99 6.445-1.976.674-4.421.61-7.333-.195l-2.556 8.7c.639.284 1.609.55 2.911.799Zm154.084-29.492h-15.838V-2.844h16.229c4.403 0 7.889 1.237 10.458 3.711 2.569 2.474 3.853 5.44 3.853 8.896 0 3.054-1.13 5.599-3.391 7.635-2.261 2.036-6.032 3.054-11.311 3.054Zm56.991-62.318v72.727h4.439V1.85h18.004c4.593 0 8.54-.947 11.843-2.84 3.302-1.894 5.841-4.493 7.617-7.795 1.776-3.303 2.663-7.037 2.663-11.204 0-4.214-.887-7.966-2.663-11.257-1.776-3.29-4.315-5.883-7.617-7.777-3.303-1.894-7.262-2.841-11.879-2.841h-22.407Zm135.191 72.727h-20.17v-72.727h21.733c6.818 0 12.654 1.438 17.507 4.315 4.854 2.876 8.576 7.013 11.168 12.41 2.593 5.398 3.877 11.862 3.853 19.39-.023 11.53-3.006 20.514-8.949 26.953-5.942 6.44-14.322 9.66-25.142 9.66Zm51.421-72.727v72.727h25.532c7.032 0 12.347-1.752 15.945-5.255 3.599-3.504 5.398-8.038 5.398-13.601 0-3.528-.663-6.617-1.989-9.269-1.326-2.651-3.06-4.752-5.202-6.303-2.142-1.55-4.468-2.42-6.978-2.61v-.426c3.386-.876 6.12-2.74 8.203-5.593 2.084-2.853 3.125-6.493 3.125-10.92 0-5.587-1.752-10.109-5.256-13.565-3.504-3.457-8.558-5.185-15.163-5.185h-23.615ZM375.848-2.269h-17.897v-35.475h17.862c5.611 0 9.99 1.67 13.139 5.007 3.149 3.338 4.723 7.588 4.723 12.749 0 5.137-1.574 9.375-4.723 12.713-3.149 3.338-7.517 5.007-13.104 5.007Zm97.124 29.013h15.554c9.73 0 17.158-2.877 22.283-8.63 5.126-5.752 7.665-13.707 7.617-23.863-.023-9.99-2.467-17.82-7.333-23.49-4.865-5.67-11.867-8.506-21.005-8.506h-17.116v64.489Zm92.294-34.837h-20.703v-29.651h19.176c5.161 0 9.138 1.308 11.931 3.924 2.794 2.616 4.191 6.185 4.191 10.707 0 4.167-1.272 7.712-3.818 10.636-2.544 2.923-6.137 4.385-10.777 4.385ZM413.845 50.963c1.066.236 2.143.355 3.232.355 6.203 0 10.665-3.73 13.388-11.186l23.011-63.814h-4.652l-17.329 48.97h-.356l-17.329-48.97h-4.652l19.993 55.291-2.486 6.819c-1.491 4.119-3.427 6.77-5.806 7.954-2.379 1.184-5.25 1.136-8.612-.142l-1.278 3.8c.852.378 1.811.686 2.876.923Zm151.811-24.22h-21.093V-4.044h21.235c3.338 0 6.274.698 8.807 2.095 2.534 1.397 4.516 3.308 5.948 5.735 1.433 2.426 2.149 5.167 2.149 8.22 0 4.333-1.473 7.872-4.421 10.619-2.948 2.746-7.156 4.119-12.625 4.119ZM77.364 89.184v72.727h2.272v-30.256H98.67c4.072 0 7.677-.905 10.814-2.716 3.136-1.811 5.599-4.309 7.386-7.493s2.681-6.836 2.681-10.955c0-4.167-.894-7.848-2.681-11.045-1.787-3.196-4.25-5.705-7.386-7.528-3.137-1.823-6.742-2.734-10.814-2.734H77.364Zm131.96 72.727H190.29V89.184h20.88c6.7 0 12.435 1.438 17.206 4.314 4.77 2.877 8.428 7.002 10.973 12.376s3.805 11.837 3.782 19.389c-.024 11.601-2.995 20.609-8.914 27.024-5.919 6.416-14.216 9.624-24.893 9.624Zm52.415-72.727v72.727h25.142c6.25 0 11.127-1.699 14.63-5.096 3.504-3.397 5.256-7.901 5.256-13.512 0-3.385-.61-6.404-1.829-9.055-1.219-2.652-2.882-4.783-4.989-6.392-2.107-1.61-4.475-2.522-7.102-2.735v-.284c3.527-.9 6.256-2.918 8.185-6.055 1.929-3.136 2.894-6.847 2.894-11.132 0-5.73-1.716-10.24-5.149-13.53-3.433-3.291-8.203-4.936-14.311-4.936h-22.727ZM98.67 129.383H79.636V91.456H98.67c3.646 0 6.866.811 9.659 2.433 2.794 1.622 4.984 3.865 6.57 6.729 1.586 2.865 2.379 6.156 2.379 9.873 0 3.693-.793 6.96-2.379 9.801-1.586 2.841-3.776 5.066-6.57 6.676-2.793 1.61-6.013 2.415-9.659 2.415Zm93.893 30.255h16.761c10.085 0 17.874-3.036 23.366-9.108 5.493-6.073 8.215-14.495 8.168-25.267-.024-10.606-2.622-18.892-7.795-24.858-5.173-5.966-12.47-8.949-21.893-8.949h-18.607v68.182Zm94.318-35.795h-22.87V91.456h20.455c5.303 0 9.493 1.409 12.571 4.226 3.077 2.817 4.616 6.807 4.616 11.968 0 2.888-.544 5.563-1.633 8.025-1.089 2.462-2.723 4.439-4.901 5.931-2.178 1.491-4.924 2.237-8.238 2.237ZM132.69 180.945c2.178.947 4.214 1.42 6.108 1.42 5.54 0 9.565-3.503 12.074-10.511l22.941-64.488h-2.415l-18.466 51.704h-.284l-18.466-51.704h-2.415l19.886 55.539-2.912 8.097c-1.695 4.712-4.044 7.61-7.049 8.694-2.324.839-5.041.592-8.149-.74l-.853 1.989Zm154.191-21.307h-22.87v-33.522h22.87c3.433 0 6.469.733 9.108 2.201 2.64 1.468 4.718 3.492 6.233 6.073 1.515 2.58 2.272 5.551 2.272 8.913 0 4.901-1.604 8.848-4.811 11.843-3.208 2.995-7.475 4.492-12.802 4.492Zm69.454-70.454-12.074 72.727h8.807l4.404-26.563h15.909c5.634 0 10.434-1.041 14.399-3.125 3.966-2.083 7.115-4.876 9.447-8.38 2.331-3.504 3.853-7.387 4.563-11.648.71-4.309.479-8.203-.693-11.683-1.172-3.48-3.409-6.238-6.711-8.274-3.303-2.036-7.795-3.054-13.477-3.054h-24.574Zm129.688 72.727h-22.728l12.074-72.727h23.154c7.055 0 12.873 1.479 17.454 4.439 4.581 2.959 7.777 7.185 9.588 12.677 1.811 5.493 2.077 12.05.799 19.673-1.231 7.481-3.617 13.903-7.156 19.265-3.539 5.363-8.108 9.482-13.707 12.358-5.599 2.877-12.092 4.315-19.478 4.315Zm61.221-72.727-12.074 72.727h26.279c5.729 0 10.523-.852 14.382-2.557 3.859-1.704 6.865-4.013 9.02-6.925 2.154-2.911 3.539-6.19 4.155-9.836.615-3.835.378-7.079-.711-9.73-1.089-2.652-2.639-4.688-4.652-6.108-2.012-1.421-4.107-2.202-6.285-2.344l.142-.71c3.196-.853 6.167-2.427 8.913-4.723 2.747-2.297 4.511-5.789 5.292-10.476.615-3.551.367-6.789-.746-9.712-1.113-2.924-3.172-5.256-6.179-6.996-3.007-1.74-7.043-2.61-12.11-2.61h-25.426Zm-172.869 38.352h-15.59l5.079-30.54h15.483c5.894 0 9.842 1.432 11.843 4.297 2 2.865 2.645 6.499 1.935 10.902-.71 4.332-2.557 7.972-5.54 10.92-2.983 2.947-7.386 4.421-13.21 4.421Zm99.041 26.562h12.891c9.02 0 16.181-2.621 21.484-7.865 5.303-5.244 8.701-12.376 10.192-21.396 1.491-8.665.538-15.471-2.859-20.419-3.397-4.948-9.357-7.422-17.88-7.422h-14.382l-9.446 57.102Zm93.715-32.954h-16.336l3.978-24.148h16.619c4.829 0 8.167 1.119 10.014 3.356 1.847 2.237 2.486 4.954 1.918 8.15-.379 2.557-1.349 4.782-2.912 6.676-1.563 1.894-3.504 3.362-5.824 4.403-2.32 1.042-4.806 1.563-7.457 1.563ZM404.79 182.028c1.078.225 2.327.337 3.747.337 3.693 0 7.061-1.006 10.103-3.018 3.042-2.012 5.735-5.197 8.079-9.553l33.451-62.428h-9.446l-22.301 43.607h-.568l-7.812-43.607h-8.736l10.937 54.545-2.343 4.261c-1.516 2.746-2.966 4.765-4.351 6.055-1.385 1.29-2.841 2.036-4.368 2.237-1.526.202-3.261.042-5.202-.479l-3.409 7.386c.402.213 1.142.432 2.219.657Zm157.937-27.93h-17.471l4.261-25.284h17.898c3.172 0 5.806.634 7.901 1.9 2.095 1.267 3.599 2.948 4.51 5.043.911 2.095 1.178 4.374.799 6.836-.568 3.196-2.255 5.912-5.06 8.15-2.805 2.237-7.085 3.355-12.838 3.355Z" fill="#212529"/></g></g><g clip-path="url(#c)" transform="translate(.033 600)"><path d="M0 0h600v600H0V0Z" fill="none"/><path d="M0 0h600v600H0V0Z" fill="none"/><g fill-rule="evenodd" clip-path="url(#d)"><path d="M0 0h600v600H0V0Z" fill="none"/><path d="M9.559 209.184v72.727h6.64v-27.805h16.94c5.137 0 9.434-.989 12.89-2.966 3.457-1.976 6.06-4.663 7.813-8.061 1.752-3.397 2.627-7.214 2.627-11.452 0-4.238-.875-8.049-2.627-11.435-1.752-3.385-4.368-6.066-7.848-8.043-3.48-1.977-7.801-2.965-12.962-2.965H9.559Zm138.388 72.727H126.64v-72.727h22.585c6.937 0 12.873 1.444 17.809 4.332 4.936 2.888 8.718 7.031 11.346 12.429 2.628 5.398 3.942 11.873 3.942 19.425-.024 11.435-3.025 20.383-9.002 26.846-5.978 6.464-14.436 9.695-25.373 9.695Zm50.426-72.727v72.727h25.888c7.813 0 13.571-1.805 17.276-5.415 3.705-3.611 5.558-8.162 5.558-13.655 0-3.693-.71-6.865-2.131-9.517-1.421-2.651-3.226-4.717-5.416-6.196-2.189-1.48-4.468-2.303-6.835-2.468v-.569c3.243-.876 5.978-2.604 8.203-5.184 2.225-2.581 3.338-6.144 3.338-10.689 0-5.469-1.782-10.008-5.345-13.619-3.563-3.61-8.895-5.415-15.998-5.415h-24.538ZM32.961 248.14H16.2v-32.99h16.654c5.753 0 10.038 1.55 12.856 4.652 2.817 3.101 4.225 7.043 4.225 11.825 0 4.758-1.402 8.7-4.208 11.825-2.805 3.125-7.06 4.688-12.766 4.688Zm100.32 27.805h14.275c9.375 0 16.442-2.722 21.201-8.167 4.758-5.446 7.137-12.915 7.137-22.408-.023-9.422-2.331-16.815-6.924-22.177-4.593-5.362-11.305-8.043-20.135-8.043h-15.554v60.795Zm90.234-33.913h-18.501V215.15h17.897c4.972 0 8.713 1.213 11.222 3.64 2.509 2.426 3.764 5.569 3.764 9.428 0 4.001-1.32 7.303-3.959 9.908-2.64 2.604-6.114 3.906-10.423 3.906ZM71.686 302.028c1.101.225 2.267.337 3.498.337 6.937 0 11.849-3.941 14.737-11.825l23.083-63.174h-6.854l-16.193 46.2h-.497l-16.194-46.2h-6.853l20.064 55.078-1.989 5.539c-1.515 4.12-3.374 6.682-5.575 7.688-2.202 1.007-4.913 1.001-8.132-.017l-1.705 5.575c.64.308 1.51.574 2.61.799Zm152.575-26.083h-19.247v-28.018h19.531c3.267 0 6.113.663 8.54 1.988 2.427 1.326 4.309 3.119 5.647 5.38 1.337 2.261 2.006 4.777 2.006 7.546 0 3.765-1.343 6.89-4.03 9.375-2.687 2.486-6.836 3.729-12.447 3.729Zm63.488-66.761-12.074 72.727h15.377l3.942-23.579h12.89c5.611 0 10.559-1.03 14.844-3.09 4.285-2.06 7.777-4.93 10.476-8.611 2.699-3.682 4.439-7.949 5.22-12.802.805-4.83.485-9.097-.959-12.802s-3.93-6.605-7.457-8.7c-3.528-2.095-8.049-3.143-13.565-3.143h-28.694Zm137.358 72.727h-26.136l12.074-72.727h25.639c7.315 0 13.4 1.497 18.253 4.492s8.268 7.262 10.245 12.802c1.977 5.54 2.326 12.157 1.048 19.851-1.231 7.433-3.682 13.808-7.351 19.123-3.67 5.315-8.369 9.387-14.098 12.216-5.729 2.829-12.287 4.243-19.674 4.243Zm58.665-72.727-12.074 72.727h31.073c5.445 0 10.174-.876 14.187-2.628 4.013-1.752 7.226-4.143 9.641-7.173 2.415-3.03 3.942-6.463 4.581-10.298.592-3.575.343-6.665-.746-9.269s-2.734-4.628-4.936-6.072-4.676-2.214-7.422-2.308l.142-.711c3.883-.852 7.292-2.604 10.227-5.255 2.936-2.652 4.771-6.108 5.505-10.37.923-5.445-.349-9.913-3.818-13.405-3.468-3.492-9.215-5.238-17.241-5.238h-29.119Zm21.769 30.433h-11.4l2.983-18.004h11.648c3.385 0 5.877.799 7.475 2.397 1.598 1.598 2.184 3.723 1.758 6.374-.45 2.865-1.859 5.12-4.226 6.765-2.367 1.645-5.113 2.468-8.238 2.468Zm-198.118 6.392h-10.37l4.049-24.254h10.369c4.451 0 7.564 1.101 9.339 3.302 1.776 2.202 2.368 5.126 1.776 8.772-.592 3.598-2.154 6.528-4.688 8.789-2.533 2.261-6.025 3.391-10.475 3.391Zm109.126 22.727h9.446c6.865 0 12.441-1.941 16.726-5.823 4.285-3.883 7.114-9.967 8.487-18.253 1.326-7.907.557-13.601-2.308-17.081-2.865-3.48-7.706-5.22-14.524-5.22H424.22l-7.671 46.377Zm-75.781 33.186c1.61.296 3.385.444 5.327.444 5.587 0 10.197-1.32 13.831-3.959 3.634-2.64 6.599-6.174 8.896-10.6l31.214-60.441h-16.583l-18.076 40.128h-.568l-4.616-40.128h-15.341l10.227 56.001-1.35 2.309c-1.467 2.533-3.136 4.007-5.007 4.421-1.87.414-4.072.218-6.605-.586l-5.327 11.293c1.042.449 2.368.822 3.978 1.118Zm160.973-32.582h-12.536l3.161-19.318h12.855c3.741 0 6.516.959 8.327 2.876 1.811 1.918 2.48 4.38 2.007 7.387-.45 2.722-1.799 4.912-4.048 6.569-2.249 1.658-5.505 2.486-9.766 2.486ZM64.404 318.184v72.727h17.578v-22.585h11.932c5.564 0 10.364-1.03 14.4-3.09 4.036-2.059 7.156-4.965 9.357-8.718 2.202-3.752 3.303-8.138 3.303-13.157 0-4.995-1.077-9.38-3.232-13.156-2.154-3.777-5.214-6.724-9.179-8.843-3.966-2.119-8.671-3.178-14.116-3.178H64.404Zm151.634 72.727h-26.882v-72.727h26.846c7.41 0 13.796 1.45 19.159 4.35 5.362 2.9 9.499 7.061 12.411 12.482 2.912 5.422 4.368 11.92 4.368 19.496 0 7.576-1.45 14.08-4.35 19.514-2.901 5.433-7.038 9.605-12.412 12.517-5.374 2.912-11.754 4.368-19.14 4.368Zm46.129-72.727v72.727h32.635c5.374 0 9.943-.882 13.707-2.645 3.765-1.764 6.641-4.179 8.63-7.245 1.989-3.066 2.983-6.552 2.983-10.458 0-3.504-.758-6.54-2.273-9.108-1.515-2.569-3.522-4.581-6.019-6.037-2.498-1.456-5.215-2.244-8.15-2.362v-.71c4.001-.829 7.268-2.628 9.801-5.398 2.533-2.77 3.8-6.226 3.8-10.369 0-5.493-2.089-9.932-6.268-13.317s-10.352-5.078-18.519-5.078h-30.327Zm27.308 29.9h-9.73V332.14h10.014c2.936 0 5.268.704 6.996 2.113 1.728 1.408 2.592 3.32 2.592 5.735 0 2.557-.923 4.545-2.769 5.966-1.847 1.42-4.214 2.13-7.103 2.13Zm-198.828 6.393h-8.665v-22.124h8.665c3.954 0 6.96.988 9.02 2.965 2.06 1.977 3.089 4.658 3.089 8.043 0 3.362-1.029 6.055-3.09 8.079-2.059 2.024-5.065 3.037-9.019 3.037Zm116.087 21.448h8.629c6.132 0 10.825-1.604 14.08-4.811 3.255-3.208 4.883-8.742 4.883-16.602 0-7.836-1.639-13.352-4.918-16.548-3.279-3.196-8.044-4.794-14.294-4.794h-8.38v42.755Zm-77.166 33.701c2.864 1.16 6.415 1.74 10.653 1.74 6.25 0 11.056-1.427 14.418-4.279 3.361-2.853 5.8-6.505 7.315-10.955l20.561-59.766h-18.288l-10.192 38.92h-.568l-10.05-38.92h-18.182l19.389 56.534-.674 1.634c-.829 2.036-2.155 3.166-3.978 3.391-1.823.224-4.012-.077-6.569-.905l-3.835 12.606Zm161.044-32.884h-10.867v-17.329h11.186c3.362 0 6.008.822 7.937 2.468 1.929 1.645 2.894 3.864 2.894 6.658 0 2.581-.905 4.593-2.716 6.037-1.811 1.444-4.623 2.166-8.434 2.166Zm52.799-58.558v72.727h4.439v-29.013h18.004c4.593 0 8.541-.947 11.844-2.841 3.302-1.893 5.841-4.492 7.617-7.794 1.775-3.303 2.663-7.037 2.663-11.204 0-4.214-.888-7.966-2.663-11.257-1.776-3.291-4.315-5.883-7.617-7.777-3.303-1.894-7.263-2.841-11.879-2.841h-22.408Zm135.192 72.727h-20.17v-72.727h21.733c6.818 0 12.654 1.438 17.507 4.315 4.853 2.876 8.576 7.013 11.168 12.411 2.593 5.398 3.877 11.861 3.853 19.389-.023 11.529-3.006 20.514-8.949 26.953-5.942 6.439-14.323 9.659-25.142 9.659Zm51.421-72.727v72.727h25.532c7.031 0 12.346-1.752 15.945-5.256 3.599-3.503 5.398-8.037 5.398-13.6 0-3.528-.663-6.617-1.989-9.269-1.326-2.651-3.06-4.752-5.202-6.303-2.143-1.551-4.469-2.421-6.978-2.61v-.426c3.385-.876 6.12-2.741 8.203-5.593 2.083-2.853 3.125-6.493 3.125-10.92 0-5.587-1.752-10.109-5.256-13.565-3.504-3.457-8.558-5.185-15.163-5.185h-23.615Zm-164.276 39.595H347.85v-35.476h17.862c5.611 0 9.991 1.669 13.14 5.007 3.148 3.338 4.723 7.588 4.723 12.749 0 5.137-1.575 9.375-4.723 12.713-3.149 3.338-7.517 5.007-13.104 5.007Zm97.124 29.013h15.554c9.73 0 17.158-2.877 22.283-8.629 5.125-5.753 7.664-13.708 7.617-23.864-.023-9.991-2.468-17.821-7.333-23.491-4.865-5.67-11.867-8.505-21.005-8.505h-17.116v64.489Zm92.294-34.837h-20.703v-29.652h19.176c5.161 0 9.138 1.308 11.931 3.924 2.794 2.616 4.191 6.185 4.191 10.707 0 4.167-1.273 7.712-3.818 10.636-2.545 2.923-6.137 4.385-10.777 4.385Zm-151.421 59.056a14.9 14.9 0 0 0 3.232.355c6.202 0 10.665-3.729 13.387-11.186l23.012-63.814h-4.652l-17.33 48.97h-.355l-17.329-48.97h-4.652l19.993 55.291-2.486 6.819c-1.492 4.119-3.427 6.77-5.806 7.954-2.38 1.184-5.25 1.136-8.612-.142l-1.278 3.8c.852.378 1.811.686 2.876.923Zm151.811-24.219h-21.093v-30.788h21.235c3.338 0 6.274.698 8.807 2.095 2.533 1.396 4.516 3.308 5.948 5.735 1.433 2.426 2.149 5.167 2.149 8.221 0 4.332-1.474 7.871-4.421 10.618-2.948 2.746-7.156 4.119-12.625 4.119Z" fill="#212529"/><path d="m540.41 607.088 6.887-8.102m0 0 11.275-13.651m0 0 8.84-11.051m0 0 8.637-11.153m0 0 6.354-8.454m0 0 8.295-11.367m0 0 10.045-14.397m0 0 5.847-8.735m-98.9 87.41 10.222-12.55m0 0 8.045-10.137m0 0 7.936-10.222m0 0 7.795-10.33m0 0 7.631-10.448m0 0 5.617-7.905m0 0 5.519-7.981m0 0 5.411-8.055m0 0 5.291-8.12m0 0 5.181-8.196m0 0 5.052-8.269m0 0 4.931-8.346m0 0 6.347-11.253m0 0 4.583-8.527m0 0 4.441-8.602M579.09 606.008l14.036-18.217m0 0 13.774-18.403m-134.92 38.51 6.086-7.166m0 0 8.018-9.631m0 0 5.972-7.271m0 0 7.862-9.768m0 0 9.648-12.349m0 0 5.692-7.501m0 0 7.447-10.083m0 0 7.291-10.209m0 0 5.359-7.743m0 0 8.682-13.062m0 0 8.361-13.282m0 0 4.851-8.069m0 0 3.157-5.435m0 0 4.622-8.204m0 0 2.991-5.518m0 0 4.372-8.352m0 0 2.825-5.613m0 0 2.742-5.645m0 0 3.978-8.551m0 0 3.791-8.624m0 0 2.43-5.802m0 0 2.337-5.833m0 0 3.334-8.825m0 0 2.118-5.916m0 0 2.015-5.96m0 0 1.922-5.991m0 0 2.689-9.044m-168.26 218.887 12.228-13.896m0 0 10.051-11.701m0 0 7.963-9.434m0 0 9.797-11.92m0 0 7.71-9.653m0 0 7.588-9.755m0 0 7.437-9.871m0 0 7.284-9.996m0 0 5.35-7.582m0 0 8.672-12.804m0 0 6.717-10.412m0 0 4.884-7.905m0 0 6.292-10.671m0 0 4.549-8.113m0 0 4.397-8.206m0 0 5.602-11.077m0 0 3.992-8.415m0 0 3.799-8.509m0 0 3.607-8.601m0 0 3.394-8.685m0 0 4.184-11.722m0 0 2.867-8.883m0 0 2.624-8.966m0 0 2.381-9.038m0 0 2.127-9.101m0 0 1.854-9.164m0 0 1.591-9.216m0 0 1.307-9.267m0 0 1.023-9.299m0 0 1-9.33m-.261 0 1-9.35m-.554 0 1-9.362m.02 0-1-9.36m.574 0-1-9.351m.281 0-1-9.33m0 0-1.014-9.299m0 0-1.286-9.268m0 0-1.571-9.226m0 0-1.834-9.163m0 0-2.107-9.112m0 0-1.55-6.032m0 0-1.662-6.002m0 0-2.695-8.945m0 0-2.928-8.861m0 0-3.161-8.779m0 0-3.383-8.695m0 0-3.587-8.602m0 0-3.789-8.519m0 0-5.349-11.212m0 0-4.215-8.301m0 0-5.886-10.921m0 0-6.149-10.765m0 0-4.792-7.967m0 0-4.914-7.884m0 0-8.469-12.95m0 0-5.239-7.655m0 0-7.153-10.1m0 0-7.314-9.974m0 0-7.467-9.85m0 0-9.533-12.149m0 0-7.761-9.6m0-.001-7.882-9.506m0 0-9.979-11.763m0 0-12.158-13.96m0 0-8.196-9.214m-41.03 621.75 10.465-11.277m0 0 14.514-15.929m0 0 12.297-13.789m0 0 8.097-9.294m0 0 6.012-7.019m0 0 9.888-11.817m0 0 9.696-11.983m0 0 7.611-9.719m0 0 7.449-9.833m0 0 7.267-9.98m0 0 7.085-10.123m0 0 5.171-7.695m0 0 6.69-10.404m0 0 4.848-7.902m0 0 4.707-8.006m0 0 6.002-10.83m0 0 4.291-8.246m0 0 4.11-8.337m0 0 5.151-11.287m0 0 3.604-8.577m0 0 3.381-8.681m0 0 3.137-8.775m0 0 2.875-8.867m0 0 2.611-8.951m0 0 2.338-9.034m0 0 2.044-9.107m0 0 1.75-9.169m0 0 1.437-9.231m0 0 1.133-9.273m0 0 1-9.303m-.189 0 1-9.336m-.504 0 1-9.345m.01 0-1-9.335m.524 0-1-9.336m.19 0-1-9.314m0 0-1.113-9.273m.078 0-1-6.157m0 0-1.639-9.19m0 0-1.944-9.128m0 0-2.226-9.065m0 0-2.511-8.981m0 0-2.783-8.9m0 0-3.036-8.805m0 0-3.29-8.722m0 0-3.532-8.619m0 0-2.469-5.68m0 0-2.571-5.649m0 0-5.425-11.153m0 0-4.281-8.244m0 0-4.474-8.14m0 0-4.635-8.048m0 0-6.427-10.571m0 0-4.99-7.819m0 0-6.862-10.279m0 0-7.074-10.125m0 0-7.278-9.978m0 0-7.439-9.844m0 0-7.601-9.719m0 0-7.742-9.606m0 0-9.848-11.848m0 0-10.02-11.713m0 0-12.206-13.872m0 0-8.227-9.159m0 0-12.47-13.633m0 0-10.475-11.266m210.286 217.54-3.759-12.249m0 0-2.016-6.065m0 0-2.116-6.044m0 0-3.326-8.985m0 0-2.328-5.948m0 0-3.638-8.845m0 0-2.529-5.851m0 0-3.921-8.706m0 0-2.721-5.765m0 0-4.192-8.555m0 0-2.882-5.669m0 0-4.445-8.416m0 0-3.043-5.571m0 0-7.851-13.763m0 0-4.878-8.137m0 0-4.988-8.073m0 0-8.556-13.279m0 0-10.622-15.663m0 0-10.965-15.393m0-.001-11.267-15.147m0 0-5.734-7.482m0-.001-7.74-9.897m0 0L476.75-16.072m-127.686 623.45 12.903-13.291m0 0 14.958-15.59m0 0 10.612-11.211m0 0 12.617-13.571m0 0 8.323-9.12m0 0 10.285-11.522m0 0 8.118-9.316m0 0 9.969-11.79m0 0 7.832-9.565m0 0 7.668-9.699m0 0 5.633-7.371m0 0 7.341-9.948m0 0 5.358-7.577m0 0 6.921-10.248m0 0 6.656-10.435m0 0 4.795-7.95m0 0 4.611-8.064m0 0 4.417-8.178m0 0 5.551-11.076m0 0 3.885-8.447m0 0 3.65-8.55m0 0 3.375-8.665m0 0 3.098-8.778m0 0 2.801-8.872m0 0 2.495-8.964m0 0 2.178-9.058m0 0 1.84-9.12m0 0 1.492-9.192m0 0 1-6.159m-.201 0 1-9.276m-.1 0 1-9.296m-.469 0 1-9.316m-.031 0-1-9.317m.663 0-1-6.201m.182 0-1-9.275m0 0-1.176-9.244m0 0-1.524-9.182m0 0-1.871-9.13m0 0-2.208-9.037m0 0-2.526-8.965m0 0-2.832-8.861m0 0-3.119-8.758m0 0-3.403-8.654m0 0-3.671-8.551m0 0-3.916-8.425m0 0-4.141-8.323m0 0-4.365-8.199m0 0-6.135-10.766m0 0-4.805-7.94m0 0-6.676-10.413m0 0-5.194-7.702m0 0-7.127-10.103m0 0-7.351-9.948m0 0-5.644-7.36m0 0-5.746-7.278m0 0-9.774-11.966m0 0-5.971-7.091m0 0-10.102-11.676m0 0-10.264-11.543m0 0-10.398-11.407m0 0L389.04 31.533m0 0-12.729-13.456m0 0-14.968-15.58m0 0-12.913-13.28m257.11 142.281-4.49-9.146m0 0-4.646-9.055m0 0-4.801-8.975m0 0-4.936-8.908m0 0-5.08-8.805m0 0-6.974-11.634m0 0-5.381-8.634m0 0-5.493-8.555m0 0-5.604-8.475m0-.001-7.631-11.19m0 0-5.838-8.317m0 0-7.932-10.975m0 0L524.568 2.57m0 0L516.29-8.133m0 0-8.4-10.6m-197.7 625.261 36.051-37.17m0 0 23.12-24.252m0 0 8.334-8.897m0 0 12.381-13.462m0 0 8.154-9.062m0 0 10.067-11.457m0 0 7.924-9.288m0 0 7.783-9.4m0 0 7.623-9.544m0 0 5.6-7.251m0 0 5.479-7.354m0 0 7.102-9.956m0 0 5.159-7.59m0 0 4.988-7.704m0 0 4.818-7.826m0 0 6.111-10.635m0 0 4.327-8.115m0 0 4.087-8.248m0 0 3.837-8.383m0 0 3.546-8.506m0 0 3.255-8.629m0 0 2.935-8.753m0 0 2.604-8.865m0 0 2.254-8.959m0 0 1.293-6.027m0 0 1.622-9.102m0 0 1.234-9.174m0 0 1-6.14m-.399 0 1-9.236m-.439 0 1-9.257m.02 0-1-6.161m.459 0-1-9.246m.048 0-1-9.205m0 0-1.342-9.154m0 0-1.733-9.082m0 0-2.104-9m0 0-1.603-5.944m0 0-2.704-8.835m0 0-3.025-8.711m0 0-2.194-5.75m0 0-3.536-8.516m0 0-3.817-8.383m0 0-4.077-8.258m0 0-4.317-8.125m0 0-4.538-7.992m0 0-6.361-10.47m0 0-4.989-7.713m0 0-5.149-7.602m0 0-7.092-9.965m0 0-5.479-7.354m0 0-5.59-7.261m0 0-7.613-9.545m0 0-7.783-9.411m0 0-7.913-9.287m0 0-8.034-9.184m0 0-10.177-11.345m0 0-10.308-11.231m0 0-10.397-11.128m0 0L357.11 41.159m0 .001-12.652-13.183m0 0L310.52-6.993M604.6 54.978l-4.85-7.58m0 0-6.61-10.02m0 0-5.06-7.44m0 0-6.88-9.83m0 0-5.25-7.31m0 0-7.12-9.66m0-.001-7.24-9.57m42.831 70.566-7.997-11.92m0 0-10.9-15.756m0 0-8.343-11.7m0 .001L565.836 9.3m0 0-8.657-11.494m0 0-11.741-15.19m0 0L533.5-32.432m75.834 119.187-15.105-19.468m0 0-11.59-14.427m0 0-15.751-19.041m0 0-12.026-14.115m0 0-16.311-18.62m0 0-12.42-13.826m0 0-16.808-18.243m0 0L492.267-49.03M261.174 605.568l76.609-76.723m0 0 17.364-17.695m0 0 12.878-13.403m0 0 6.377-6.757m0 0 10.511-11.381m0 0 6.212-6.903m0 0 6.14-6.975m0 0 8.051-9.43m0 0 7.845-9.575m0 0 5.747-7.315m0 0 5.591-7.408m0 0 5.437-7.543m0 0 5.25-7.664m0 0 5.034-7.799m0 0 4.816-7.955m0 0 4.558-8.089m0 0 4.279-8.244m0 0 2.687-5.582m0 0 3.752-8.502m0 0 3.39-8.636m0 0 3.029-8.781m0 0 2.615-8.914m0 0 2.18-9.028m0 0 1.21-6.067m0 0 1.002-6.109m0 0 1-3.074m-.575 0 1-6.15m-.318 0 1-6.17m-.535 0 1-6.19m-.751 0 1-3.096m-.042 0-1-6.191m.7 0-1-6.18m.763 0-1-3.085m.38 0-1-6.16m0 0-1.344-9.183m0 0-1.809-9.11m0 0-2.253-9.008m0 0-2.687-8.894m0 0-2.016-5.85m0 0-3.328-8.667m0 0-2.429-5.706m0 0-3.917-8.419m0 0-4.228-8.265m0 0-4.506-8.12m0 0-4.775-7.975m0 0-5.003-7.831m0 0-5.219-7.69m0 0-5.396-7.563m0 0-5.571-7.438m0 0-5.715-7.326m0 0-7.825-9.606m0 0-8.02-9.441m0 0-6.13-6.985m0 0-8.289-9.213m0 0-6.294-6.83m0 0-8.486-9.039m0 0-8.558-8.956m0 0L341.09 69.726m0 0L319.251 47.75m0 0L260.12-11.412M615.599 45.25 574.883-9.965M230.073 607.11l16.419-17.785m0 0 20.632-22.137m0 0 24.903-26.404m0 0 37.473-39.488m0 0 14.504-15.428m0 0 8.229-8.878m0 0 10.193-11.182m0 0 12.049-13.608m0 0 5.922-6.903m0 0 5.833-6.987m0 0 5.735-7.089m0 0 5.607-7.182m0 0 3.663-4.857m0 0 5.351-7.4m0 0 5.175-7.544m0 0 4.96-7.699m0 0 4.723-7.854m0 0 4.448-8.041m0 0 4.144-8.215m0 0 2.573-5.571m0 0 3.555-8.515m0 0 2.141-5.778m0 0 1.001-2.914m0 0 1.856-5.89m0 0 1.65-5.953m0 0 1.434-6.015m0 0 1.198-6.066m0 0 1-3.059m-.479 0 1-6.128m-.145 0 1-6.17m-.391 0 1-6.19m-.637 0 1-6.201m-.03 0-1-6.19m.617 0-1-6.19m.372 0-1-6.17m.588 0-1-3.07m.008 0-1-6.107m0 0-1.228-6.066m0 0-1.453-6.005m0 0-1.66-5.953m0 0-1.875-5.881m0 0-1.012-2.914m0 0-2.16-5.766m0 0-3.575-8.506m0 0-3.938-8.319m0 0-2.818-5.446m0 0-4.468-8.03m0 0-4.733-7.854m0 0-4.979-7.679m0 0-5.185-7.533m0 0-3.555-4.941m0 0-5.48-7.308m0 0-5.617-7.182m0 0-3.81-4.723m0 0-5.803-7.017m0 0-5.902-6.924m0 0-5.971-6.852m0 0-8.072-9.043m0 0-14.308-15.623m0 0-12.402-13.259m0 0-45.78-48.282m0-.001-26.956-28.626m0 0L242.005 2.362m0 0L229.71-11m-39.68 618.21 9.949-11.375m0 0 20.016-22.639m0 0 14.101-15.755m0 0 18.243-20.133m0 0 24.537-26.634m0 0 16.469-17.639m0 0 33.054-35.16m0 0 14.364-15.475m0 0 8.127-8.933m0 0 10.017-11.314m0 0 7.845-9.203m0 0 7.65-9.4m0 0 7.377-9.636m0 0 3.566-4.917m0 0 5.165-7.535m0 0 3.294-5.124m0 0 3.176-5.217m0 0 4.473-8.012m0 0 2.787-5.466m0 0 2.592-5.558m0 0 2.398-5.673m0 0 2.173-5.765m0 0 1.939-5.86m0 0 1.686-5.941m0 0 1.414-6.026m0 0 1.14-6.096m0 0 1-6.138m-.162 0 1-6.19m-.464 0 1-6.201m.146 0-1-6.211m.61 0-1-6.2m.299 0-1-6.159m.006 0-1-6.118m0 0-1.286-6.066m0 0-1.56-5.983m0 0-1.822-5.901m0 0-2.066-5.807m0 0-2.29-5.714m0 0-2.504-5.61m0 0-2.7-5.517m0 0-2.865-5.404m0 0-1.5-2.67m0 0-3.099-5.269m0 0-4.912-7.712m0 0-5.165-7.536m0 0-3.566-4.917m0 0-7.387-9.626m0 0-7.65-9.399m0 0-7.854-9.205m0 0-10.008-11.312m0 0-16.323-17.794m0 0-51.589-54.997m0 0-24.567-26.592m0 0L240.05 42.61m0 0-18.155-20.227m0 0-12.034-13.56m0 0-17.94-20.443M130.96 602.888l25.139-27.49m0 0 23.222-25.043m0 0 25.572-27.113m0 0 21.537-22.388m0 0 21.769-22.176m0 0 17.598-17.575m0 0 17.736-17.443m0 0 37.914-36.845m0 0 11.027-10.965m0 0 6.509-6.671m0 0 6.403-6.763m0 0 4.191-4.591m0 0 6.109-7.008m0 0 3.949-4.784m0 0 3.813-4.875m0 0 3.654-4.999m0 0 3.476-5.11m0 0 3.264-5.233m0 0 3.023-5.376m0 0 2.749-5.519m0 0 1.253-2.805m0 0 2.275-5.712m0 0 1-2.897m-.01 0 1.717-5.896m0 0 1-2.978m-.305 0 1-3.01m-.4 0 1-3.019m-.516 0 1-3.04m-.62 0 1-3.05m-.737 0 1-3.06m-.853 0 1-3.06m-.052 0-1-3.061m.799 0-1-3.05m.684 0-1-3.05m.569 0-1-3.029m.463 0-1-3.009m.357 0-1-2.999m0 0-1.59-5.917m.052 0-1-2.928m0 0-2.169-5.743m0 0-1.222-2.825m0 0-1.296-2.795m0 0-2.81-5.478m0 0-3.076-5.345m0 0-3.317-5.213m0 0-3.518-5.079m0 0-3.696-4.968m0 0-3.845-4.856m0 0-3.97-4.764m0 0-4.076-4.672m0 0-6.277-6.883m0 0-6.414-6.743m0 0-6.53-6.66m0 0-13.259-13.129m0 0-29.016-28.155m0 0-22.2-21.769m0 0-11.027-10.965m0 0-15.324-15.444m0 0-17.367-17.79m0 0-21.506-22.42m0 0L180.48 45.06m0 0-19.021-20.472m0 0-29.342-32.06m-41.993 613 36.84-42.768m0 0 30.922-35.45m0 0 14.529-16.467m0 0 20.895-23.412m0 0 14.732-16.291m0 0 12.72-13.889m0 0 21.427-22.957m0 0 13.007-13.63m0 0 8.761-9.018m0 0 19.937-20.058m0 0 29.272-28.538m0 0 6.695-6.635m0 0 4.407-4.478m0 0 4.321-4.561m0 0 6.248-7.037m0 0 3.928-4.88m0 0 3.662-5.077m0 0 1.703-2.61m0 0 1.607-2.672m0 0 1.501-2.734m0 0 1.373-2.796m0 0 1.246-2.859m0 0 1.085-2.91m0 0 1-2.961m-.074 0 1-3.003m-.254 0 1-3.054m-.436 0 1-3.074m-.638 0 1-3.086m.138 0-1-3.095m.755 0-1-3.085m.564 0-1-3.065m.372 0-1-3.043m.191 0-1-2.993m.021 0-1-2.941m0 0-1.139-2.888m0 0-1.288-2.837m0 0-1.427-2.775m0 0-1.533-2.704m0 0-1.639-2.662m0 0-3.566-5.138m0 0-1.894-2.486m0 0-3.96-4.85m0 0-6.291-7.016m0 0-4.332-4.54m0 0-4.418-4.468m0 0-35.977-35.173m0 0-13.326-13.341m0 0-6.6-6.728m0 0-13.104-13.56m0 0-8.654-9.1m0 0-19.277-20.656m0 0-14.849-16.21m0 0-16.829-18.624m0 0-12.539-14.042m0 0-18.702-21.152m0 0L126.24 31.636m0 0L89.41-11.142m-25.175 608.43 82.623-104.807m0 0 46.754-59.697m0 0 18.622-23.939m0 0 20.374-26.416m0 0 12.859-16.892m0 0 10.915-14.557m0 0 8.95-12.231m0 0 6.984-9.916m0 0 5.05-7.56m0 0 3.197-5.144m0 0 1.528-2.618m0 0 1.435-2.667m0 0 1.324-2.719m0 0 1.16-2.789m0 0 1-2.878m-.073 0 1-2.96m-.409 0 1-3.02m-.194 0-1-3m.257 0-1-2.929m0 0-1.028-2.84m0 0-1.243-2.757m0 0-1.374-2.699m0 0-3.024-5.245m0 0-4.898-7.65m0 0-5.151-7.5m0 0-7.056-9.865m0 0-8.991-12.202m0 0-14.61-19.369m0 0-12.911-16.852m0 0-33.457-43.139m0 0-50.511-64.459m0 0L63.46-4.062m18 601.28 52.49-65.578m0 0 41.43-51.38m0 0 22.72-27.93m0 0 15.21-18.559m0 0 24.91-30.011m0 0 13.56-16.029m0 0 9.78-11.381m0 0 7.9-9.03m0 0 7.99-8.96m0 0 8.1-8.84m0 0 8.26-8.72m0 0 16.86-17.07m0 0 4.12-4.36m0 0 2.01-2.229m0 0 1.92-2.311m0 0 1.79-2.4m0 0 1.6-2.539m0 0 1.35-2.681m0 0 1.01-2.82m0 0 1-2.93m-.4 0 1-3m-.2 0-1-2.98m.22 0-1-2.89m0 0-1.17-2.76m0 0-1.46-2.619m0 0-1.69-2.481m0 0-1.85-2.359m0 0-1.97-2.271m0 0-4.11-4.36m0 0-12.68-12.78m0 0-6.25-6.47m0 0-6.16-6.56m0 0-8.1-8.86m0 0-7.98-8.96m0 0-7.889-9.04m0 0L253 211.69m0 0-9.69-11.44m0 0-13.48-16.11m0 0-17.2-20.812m0 0-17.11-20.89m0 0-24.59-30.27m0 0-47.04-58.411m0 0L80.79-.133M30.41 598.188l24.76-33.92m0 0 22.8-31.649m0 0 19.08-26.92m0 0 17.12-24.641m0 0 15.16-22.339m0 0 6.64-9.99m0 0 8.19-12.57m0 0 6.46-10.11m0 0 6.35-10.19m0 0 6.21-10.26m0 0 4.57-7.76m0 0 4.45-7.82m0 0 4.34-7.88m0 0 4.19-7.97m0 0 2.69-5.36m0 0 5.11-10.86m0 0 3.52-8.28m0 0 2.17-5.59m0 0 2-5.659m0 0 1.81-5.721m0 0 1.58-5.79m0 0 1.34-5.85m0 0 1.05-5.9m0 0 1-5.96m-.26 0 1-5.979m-.59 0 1-3.001m-1.44 0v-3m1.22 0-1-5.99m.38 0-1-5.97m.06 0-1-5.93m0 0-1.23-5.87m0 0-1.49-5.81m0 0-1.73-5.74m0 0-1.93-5.68m0 0-2.11-5.62m0 0-2.27-5.559m0 0-3.64-8.231m0 0-2.57-5.419m0 0-4.02-8.05m0 0-4.2-7.961m0 0-7.31-13.1m0 0-4.54-7.769m0 0-6.19-10.281m0 0-11.15-17.791m0 0-11.438-17.611m0 0-8.32-12.49m0 0-10.101-14.89m0 0-18.8-27.13m-.001 0-19.06-26.93m0 0-21.02-29.23m0 .001L29.95-.602m23.499 603.37 26.54-36.211m.001 0 22.887-31.481m0 0 26.217-36.462m0 0 19.041-26.884m0 0 17.103-24.593m0 0 13.49-19.814m0 0 8.302-12.474m0 0 6.549-10.054m0 0 6.442-10.114m0 0 4.748-7.643m0 0 7.694-12.887m0 0 4.445-7.835m0 0 2.868-5.274m0 0 2.771-5.334m0 0 2.663-5.395m0 0 3.778-8.198m0 0 2.36-5.545m0 0 2.154-5.628m0 0 1-2.843m-.021 0 1.752-5.778m0 0 1-2.925m-.256 0 1-2.953m-.344 0 1-2.975m-.452 0 1-2.986m-.569 0 1-3.005m-.687 0 1-3.025m-.814 0 1-3.024m-.02 0-1-3.026m.805 0-1-3.015m.667 0-1-3.005m.559 0-1-2.995m.442 0-1-2.964m.335 0-1-2.944m.246 0-1-2.925m0 0-1.762-5.767m.001 0-1-2.854m0 0-2.163-5.617m0 0-2.37-5.536m0 0-2.535-5.465m0 0-2.673-5.385m0 0-2.77-5.334m0 0-2.869-5.274m0 0-4.444-7.845m0 0-4.572-7.754m0 0-6.265-10.235m0 0-4.788-7.613m0 0-6.49-10.094m0 0-13.246-19.989m0 0-11.797-17.343m0 0-18.815-27.055m0 0-20.774-29.313m0 0-22.722-31.613m0 0L75.926 31.727m0 0L52.92.347M8 578.018l16.81-24.85m0 0 11.62-17.491m0 0 8.21-12.549m0 0 12.97-20.2m0 0 12.7-20.36m0 0 6.23-10.26m0 0 6.13-10.31m0 0 6.03-10.38m0 0 5.91-10.449m0 0 8.58-15.821m0 0 4.14-7.99m0 0 4.04-8.04m0 0 3.9-8.11m0 0 3.76-8.18m0 0 3.59-8.25m0 0 2.29-5.55m0 0 3.26-8.379m0 0 2.04-5.651m0 0 2.85-8.529m0 0 1.73-5.75m0 0 2.33-8.69m0 0 1.36-5.851m0 0 1.18-5.879m0 0 1-5.91m-.01 0 1-5.95m-.2 0 1-5.971m-.4 0 1-5.989m-.62 0 1-6m.12 0-1-5.99m.73 0-1-6m.52 0-1-5.98m.3 0-1-5.96m.11 0-1-5.93m0 0-1.09-5.9m0 0-1.26-5.87m0 0-1.43-5.82m0 0-1.59-5.79m0 0-2.65-8.6m0 0-1.92-5.68m0 0-3.1-8.45m0 0-2.2-5.59m0 0-3.46-8.3m0 0-3.65-8.23m0 0-3.8-8.16m0 0-5.29-10.77m0 0-4.11-8.01m0 0-4.21-7.951m0 0-5.76-10.531m0 0-5.899-10.44m0 0-4.51-7.789m-.001 0-10.76-18.041m0 0-7.85-12.78m0 0L57.7 95.406m0 0L43.1 72.697m0 0-8.23-12.54m0 0-9.97-14.99m0 .001L8.09 20.317m7.79 580.861 20.69-29.715m0 0 20.451-29.887m0 0 16.804-25.07m0 0 6.648-10.077m0 0 11.507-17.725m0 0 12.91-20.417m0 0 6.339-10.279m0 0 7.79-12.94m0 0 4.591-7.821m0 0 6.003-10.482m0 0 5.853-10.583m0 0 4.273-8.002m0 0 5.505-10.765m0 0 3.965-8.165m0 0 2.544-5.483m0 0 3.667-8.307m0 0 2.315-5.594m0 0 2.216-5.635m0 0 3.081-8.55m0 0 1.868-5.767m0 0 2.504-8.741m0 0 1.431-5.888m0 0 1.232-5.939m0 0 1.004-5.989m0 0 1-6.02m-.245 0 1-6.041m-.483 0 1-6.059m-.622 0 1-6.072m-.04 0-1-6.07m.582 0-1-6.049m.325 0-1-6.03m.085 0-1-6m0 0-1.142-5.959m0 0-1.362-5.908m0 0-1.55-5.869m0 0-1.719-5.807m0 0-2.882-8.62m0 0-2.097-5.686m0 0-2.206-5.635m0 0-3.527-8.367m0 0-2.455-5.534m0 0-5.167-10.937m0 0-4.055-8.114m0 0-4.183-8.053m0 0-5.754-10.634m0 0-4.422-7.914m0 0-4.512-7.861m0 0-6.121-10.421m0 0-4.658-7.77m0 0-7.89-12.878m-.001 0-6.41-10.24m0 0-8.109-12.728m0 0L75.625 87.308m0 0L65.597 72.222m0 0L53.803 54.71m0 0L35.05 27.312m0 0L14.37-2.412M8.1 524.118l10.72-18.059m0 0 10.45-18.22m0 0 8.7-15.751m0 0 8.42-15.909m0 0 4.09-8.02m0 0 3.99-8.06m0 0 6.44-13.55m0 0 3.7-8.21m0 0 3.57-8.261m0 0 2.3-5.539m0 0 3.32-8.37m0 0 3.14-8.43m0 0 1.99-5.66m0 0 3.69-11.42m0 0 1.7-5.75m0 0 1.58-5.79m0 0 1.46-5.82m0 0 1.95-8.78m0 0 1.14-5.9m0 0 1-5.91m-.01 0 1-5.94m-.17 0 1-5.97m-.31 0 1-5.97m-.48 0 1-5.99m-.64 0 1-9m.06 0-1-9m.68 0-1-5.99m.52 0-1-5.98m.36 0-1-5.96m.2 0-1-5.95m.04 0-1-5.919m0 0-1.09-5.901m0 0-1.24-5.87m0 0-1.37-5.84m0 0-1.49-5.82m0 0-2.46-8.649m0 0-1.77-5.731m0 0-1.88-5.699m0 0-1.96-5.671m0 0-3.11-8.449m0 0-3.29-8.38m0 0-2.29-5.54m0 0-3.54-8.28m0 0-2.442-5.481m0 0-6.34-13.591m0 0-3.95-8.09m0 0-4.038-8.041m0 0-4.13-8m0 0-4.22-7.95m0 0-5.72-10.539m0 0-4.38-7.871m0 0L19.57 93.418m0 0L7.32 72.778m.07 392.7 6.43-13.55m0 0 4.95-10.939m0 0 4.75-11.021m0 0 4.53-11.109m0 0 4.28-11.21m0 0 3.99-11.31m0 0 3.69-11.42m0 0 2.53-8.64m0 0 2.33-8.69m0 0 1.42-5.83m0 0 1.31-5.86m0 0 1.75-8.82m0 0 1.49-8.88m0 0 1.2-8.92m0 0 1-8.95m-.1 0 1-5.989m-.57 0 1-5.99m-.71 0 1-9m.02 0-1-9.001m.53 0-1-8.99m.22 0-1-8.959m.31 0-1-5.96m.17 0-1-5.941m0 0-1.47-8.879m0 0-1.13-5.9m0 0-1.24-5.86m0 0-2.08-8.76m0 0-2.31-8.7m0 0-3.41-11.5m0 0-3.75-11.4m0 0-3.02-8.48m0 0-4.27-11.22m0 0-4.52-11.112m0 0-4.74-11.03m0 0-6.198-13.65m0 0-5.16-10.84M7 389.358l3.16-11.58m0 0 2.8-11.66m0 0 1.84-8.81m0 0 1.1-5.9m0 0 1-5.921m-.01 0 1-5.929m-.12 0 1-5.95m-.23 0 1-5.97m-.35 0 1-5.98m-.47 0 1-5.98m-.59 0 1-5.99m-.72 0 1-9m.16 0-1-6m.85 0-1-6m.53 0-1-8.99m.53 0-1-5.98m.42 0-1-5.97m.29 0-1-5.96m.18 0-1-5.94m.07 0-1-5.93m0 0-1.05-5.91m0 0-1.15-5.89m0 0-1.25-5.87m0 0-1.34-5.84m0 0-1.45-5.83m0 0-3.15-11.57" fill="none" stroke="#212529" stroke-width="3"/><path d="M19.66 449.184v72.727h6.64v-27.805h16.939c5.137 0 9.434-.989 12.89-2.965 3.457-1.977 6.06-4.664 7.813-8.061 1.752-3.398 2.628-7.215 2.628-11.453 0-4.238-.876-8.049-2.628-11.435-1.752-3.385-4.368-6.066-7.848-8.043-3.48-1.977-7.8-2.965-12.962-2.965H19.66Zm138.387 72.727H136.74v-72.727h22.585c6.937 0 12.873 1.444 17.809 4.332 4.936 2.889 8.718 7.032 11.346 12.429 2.628 5.398 3.942 11.873 3.942 19.425-.024 11.435-3.025 20.383-9.002 26.847-5.978 6.463-14.436 9.694-25.373 9.694Zm50.426-72.727v72.727h25.888c7.813 0 13.571-1.805 17.276-5.415 3.705-3.611 5.558-8.162 5.558-13.654 0-3.694-.71-6.866-2.131-9.517-1.421-2.652-3.226-4.718-5.416-6.197-2.189-1.48-4.468-2.303-6.835-2.468v-.568c3.243-.876 5.978-2.605 8.203-5.185 2.225-2.581 3.338-6.144 3.338-10.689 0-5.469-1.782-10.008-5.345-13.619-3.563-3.61-8.895-5.415-15.998-5.415h-24.538ZM43.061 488.14H26.3v-32.99h16.655c5.752 0 10.037 1.55 12.855 4.652 2.817 3.101 4.225 7.043 4.225 11.825 0 4.759-1.402 8.7-4.208 11.825-2.805 3.125-7.06 4.688-12.766 4.688Zm100.32 27.805h14.275c9.375 0 16.442-2.722 21.201-8.167 4.758-5.445 7.137-12.915 7.137-22.408-.023-9.422-2.331-16.815-6.924-22.177-4.593-5.362-11.305-8.043-20.135-8.043h-15.554v60.795Zm90.234-33.913h-18.501V455.15h17.897c4.972 0 8.713 1.213 11.222 3.64 2.509 2.426 3.764 5.569 3.764 9.428 0 4.001-1.32 7.304-3.959 9.908-2.64 2.604-6.114 3.906-10.423 3.906ZM81.786 542.029a17.52 17.52 0 0 0 3.498.337c6.937 0 11.849-3.942 14.737-11.825l23.083-63.175h-6.854l-16.193 46.2h-.497l-16.194-46.2h-6.853l20.064 55.078-1.989 5.54c-1.515 4.119-3.373 6.682-5.575 7.688-2.202 1.006-4.913 1.001-8.132-.017l-1.705 5.575c.64.307 1.51.573 2.61.799Zm152.575-26.084h-19.247v-28.018h19.531c3.267 0 6.113.663 8.54 1.988 2.427 1.326 4.309 3.12 5.647 5.38 1.337 2.261 2.006 4.777 2.006 7.547 0 3.764-1.343 6.889-4.03 9.375-2.687 2.485-6.836 3.728-12.447 3.728Zm64.341-66.761-12.074 72.727h13.175l4.083-24.574h13.885c5.635 0 10.541-1.035 14.72-3.107 4.178-2.071 7.552-4.918 10.121-8.54 2.568-3.622 4.231-7.765 4.989-12.429.781-4.64.497-8.772-.852-12.394-1.35-3.622-3.753-6.475-7.209-8.558-3.457-2.083-7.978-3.125-13.566-3.125h-27.272Zm134.801 72.727h-25l12.074-72.727h24.787c7.221 0 13.21 1.486 17.968 4.457 4.759 2.971 8.103 7.22 10.032 12.748 1.93 5.528 2.256 12.127.977 19.798-1.231 7.457-3.658 13.855-7.28 19.194-3.622 5.338-8.274 9.428-13.956 12.269-5.682 2.841-12.216 4.261-19.602 4.261Zm59.517-72.727-12.074 72.727h29.439c5.54 0 10.293-.864 14.258-2.592 3.965-1.728 7.114-4.09 9.446-7.085 2.332-2.994 3.806-6.374 4.421-10.138.615-3.67.379-6.812-.71-9.428-1.089-2.616-2.705-4.646-4.848-6.091-2.142-1.444-4.492-2.225-7.049-2.343l.142-.711c3.67-.852 6.937-2.544 9.802-5.078 2.864-2.533 4.675-6.001 5.433-10.404.923-5.422-.278-9.92-3.605-13.495-3.326-3.575-8.931-5.362-16.814-5.362H493.02Zm21.129 30.93h-13.033l3.268-20.064h13.352c3.859 0 6.628.912 8.309 2.735 1.681 1.823 2.273 4.143 1.776 6.96-.473 3.173-2.018 5.694-4.634 7.564-2.616 1.87-5.629 2.805-9.038 2.805Zm-196.342 6.392h-12.11l4.368-26.313h12.074c4.948 0 8.345 1.207 10.192 3.622 1.847 2.414 2.462 5.563 1.847 9.446-.616 3.859-2.267 7.031-4.954 9.517-2.687 2.486-6.493 3.728-11.417 3.728Zm105.753 24.006h10.618c7.575 0 13.677-2.16 18.306-6.481 4.628-4.32 7.64-10.754 9.037-19.3 1.487-8.717.399-15.073-3.264-19.07-3.102-3.385-8.051-5.078-14.846-5.078h-11.542l-8.309 49.929Zm-73.349 31.446c1.432.272 3.024.408 4.776.408 4.948 0 9.144-1.214 12.589-3.64 3.445-2.427 6.327-5.854 8.647-10.28l31.925-61.08h-14.169l-19.496 41.264h-.568l-5.682-41.264h-13.139l10.44 55.504-1.633 2.948c-1.752 3.077-3.593 4.912-5.522 5.504-1.93.592-4.22.485-6.872-.319l-4.687 10.014c.828.354 1.959.668 3.391.941Zm159.925-31.055h-14.169l3.516-21.307h14.56c4.072 0 7.096 1.101 9.073 3.302 1.977 2.202 2.705 4.925 2.184 8.168-.474 2.865-1.93 5.22-4.368 7.067-2.439 1.846-6.037 2.77-10.796 2.77ZM76.99 558.184v72.727h10.973v-25.568h14.915c5.634 0 10.316-1.036 14.045-3.107 3.728-2.072 6.522-4.889 8.38-8.452 1.859-3.563 2.788-7.582 2.788-12.056 0-4.474-.923-8.487-2.77-12.038s-4.634-6.357-8.363-8.417c-3.729-2.059-8.41-3.089-14.045-3.089H76.99Zm144.105 72.727h-23.544v-72.727h24.29c7.149 0 13.275 1.45 18.377 4.35 5.102 2.9 9.02 7.055 11.754 12.465 2.735 5.409 4.102 11.89 4.102 19.442 0 7.576-1.373 14.086-4.119 19.531-2.747 5.445-6.73 9.63-11.95 12.554-5.22 2.923-11.523 4.385-18.91 4.385Zm48.615-72.727v72.727h27.877c5.634 0 10.262-.858 13.885-2.574 3.622-1.717 6.303-4.049 8.043-6.996 1.74-2.947 2.61-6.28 2.61-9.996 0-3.765-.758-6.961-2.273-9.589-1.515-2.627-3.426-4.657-5.735-6.09-2.308-1.432-4.669-2.207-7.084-2.326v-.71c3.338-.852 6.214-2.486 8.629-4.9 2.415-2.415 3.622-5.895 3.622-10.441 0-3.598-.834-6.836-2.503-9.712-1.669-2.877-4.203-5.161-7.6-6.854-3.397-1.693-7.676-2.539-12.837-2.539H269.71Zm25.675 31.463h-14.702v-22.124h14.986c4.356 0 7.588 1.013 9.695 3.037s3.16 4.551 3.16 7.581c0 3.504-1.267 6.298-3.8 8.381s-5.646 3.125-9.339 3.125Zm-193.502 6.392h-13.92v-28.444h13.779c5.445 0 9.357 1.325 11.736 3.977 2.379 2.651 3.569 6.037 3.569 10.156 0 4.119-1.184 7.534-3.551 10.245-2.368 2.711-6.238 4.066-11.613 4.066Zm106.641 25.284h11.967c8.286 0 14.489-2.326 18.608-6.978 4.119-4.652 6.179-11.286 6.179-19.904 0-8.57-2.03-15.157-6.09-19.762-4.06-4.605-10.067-6.907-18.022-6.907h-12.642v53.551Zm-66.086 29.67c1.302.248 2.746.373 4.332.373 4.38 0 7.99-1.125 10.831-3.373 2.841-2.25 5.054-5.517 6.641-9.802l22.478-61.825h-11.399l-13.814 42.329h-.568l-13.814-42.329h-11.364l19.958 55.256-1.314 3.622c-1.35 3.622-3.013 5.77-4.99 6.445-1.976.674-4.421.609-7.333-.195l-2.556 8.7c.639.284 1.609.55 2.912.799Zm154.083-29.492h-15.838v-23.296h16.229c4.403 0 7.889 1.237 10.458 3.711 2.569 2.474 3.853 5.439 3.853 8.896 0 3.054-1.13 5.599-3.391 7.635-2.261 2.036-6.032 3.054-11.311 3.054Zm56.99-63.317v72.727h4.439v-29.013h18.004c4.593.001 8.541-.946 11.844-2.84 3.302-1.894 5.841-4.493 7.617-7.795 1.775-3.303 2.663-7.037 2.663-11.204 0-4.214-.888-7.966-2.663-11.257-1.776-3.291-4.315-5.883-7.617-7.777-3.303-1.894-7.263-2.841-11.879-2.841h-22.408Zm135.192 72.727h-20.17v-72.727h21.733c6.818 0 12.654 1.438 17.507 4.315 4.853 2.876 8.576 7.013 11.168 12.411 2.593 5.398 3.877 11.861 3.853 19.389-.023 11.529-3.006 20.514-8.949 26.953-5.942 6.44-14.323 9.659-25.142 9.659Zm51.421-72.727v72.727h25.532c7.031 0 12.346-1.752 15.945-5.255 3.599-3.504 5.398-8.038 5.398-13.601 0-3.528-.663-6.617-1.989-9.269-1.326-2.651-3.06-4.752-5.202-6.303-2.143-1.551-4.469-2.421-6.978-2.61v-.426c3.385-.876 6.12-2.741 8.203-5.593 2.083-2.853 3.125-6.493 3.125-10.92 0-5.587-1.752-10.109-5.256-13.565-3.504-3.457-8.558-5.185-15.163-5.185h-23.615Zm-164.276 39.595H357.95v-35.476h17.863c5.61 0 9.99 1.669 13.139 5.007 3.148 3.339 4.723 7.588 4.723 12.749 0 5.137-1.575 9.375-4.723 12.713-3.149 3.338-7.517 5.007-13.104 5.007Zm97.124 29.013h15.554c9.73 0 17.158-2.876 22.283-8.629s7.664-13.708 7.617-23.864c-.023-9.99-2.468-17.821-7.333-23.491-4.865-5.67-11.867-8.505-21.005-8.505h-17.116v64.489Zm92.294-34.837h-20.703v-29.652h19.176c5.161 0 9.138 1.308 11.931 3.924 2.794 2.616 4.191 6.185 4.191 10.707 0 4.167-1.273 7.712-3.818 10.636-2.545 2.923-6.137 4.385-10.777 4.385Zm-151.421 59.056c1.066.236 2.143.355 3.232.355 6.202 0 10.665-3.729 13.388-11.186l23.011-63.814h-4.652l-17.33 48.97h-.355l-17.329-48.97h-4.652l19.993 55.291-2.486 6.819c-1.492 4.119-3.427 6.77-5.806 7.954-2.38 1.184-5.25 1.136-8.612-.142l-1.278 3.8c.852.378 1.811.686 2.876.923Zm151.811-24.219h-21.093v-30.788h21.235c3.338 0 6.274.698 8.807 2.095 2.533 1.397 4.516 3.308 5.948 5.735 1.433 2.426 2.149 5.167 2.149 8.221 0 4.332-1.474 7.871-4.421 10.618-2.948 2.746-7.156 4.119-12.625 4.119ZM76.99-41.864v72.727h10.973V5.295h14.915c5.634 0 10.316-1.036 14.044-3.107 3.729-2.071 6.523-4.889 8.381-8.452 1.858-3.563 2.788-7.581 2.788-12.056 0-4.474-.924-8.487-2.77-12.038-1.847-3.551-4.634-6.357-8.363-8.416-3.729-2.06-8.41-3.09-14.045-3.09H76.99Zm144.105 72.727h-23.544v-72.727h24.29c7.149 0 13.275 1.45 18.377 4.35 5.102 2.9 9.02 7.055 11.754 12.465s4.102 11.89 4.102 19.442c0 7.576-1.373 14.087-4.119 19.532-2.747 5.445-6.73 9.629-11.95 12.553-5.22 2.924-11.524 4.385-18.91 4.385Zm48.615-72.727v72.727h27.877c5.634 0 10.262-.858 13.885-2.574 3.622-1.716 6.303-4.048 8.043-6.996 1.74-2.947 2.61-6.28 2.61-9.996 0-3.764-.758-6.96-2.273-9.588-1.515-2.628-3.427-4.658-5.735-6.09-2.308-1.433-4.67-2.208-7.084-2.327v-.71c3.338-.852 6.214-2.486 8.629-4.9 2.414-2.415 3.622-5.895 3.622-10.44 0-3.6-.835-6.837-2.503-9.713-1.67-2.877-4.203-5.161-7.6-6.854-3.398-1.692-7.677-2.539-12.837-2.539H269.71Zm25.675 31.463h-14.702v-22.123h14.986c4.356 0 7.587 1.012 9.695 3.036 2.106 2.024 3.16 4.551 3.16 7.581 0 3.504-1.267 6.298-3.8 8.381-2.533 2.084-5.646 3.125-9.339 3.125ZM101.883-4.009h-13.92v-28.444h13.778c5.445 0 9.357 1.325 11.737 3.977 2.379 2.652 3.569 6.037 3.569 10.156 0 4.12-1.184 7.535-3.552 10.245-2.367 2.711-6.238 4.066-11.612 4.066Zm106.641 25.284h11.967c8.286 0 14.488-2.326 18.608-6.978 4.119-4.652 6.179-11.286 6.179-19.904 0-8.57-2.03-15.157-6.09-19.762-4.06-4.604-10.068-6.907-18.022-6.907h-12.642v53.551Zm-66.087 29.67c1.302.248 2.746.373 4.333.373 4.379 0 7.99-1.124 10.831-3.373 2.841-2.25 5.054-5.517 6.64-9.802l22.479-61.825h-11.399l-13.814 42.33h-.568l-13.814-42.33h-11.364l19.958 55.256-1.314 3.622c-1.35 3.622-3.013 5.77-4.99 6.445-1.977.674-4.421.61-7.333-.195l-2.557 8.7c.64.284 1.61.55 2.912.799Zm154.084-29.492h-15.838V-1.843h16.229c4.403 0 7.889 1.238 10.458 3.711 2.568 2.474 3.853 5.44 3.853 8.896 0 3.054-1.131 5.599-3.391 7.635-2.262 2.036-6.032 3.054-11.311 3.054Zm56.99-63.27v72.728h4.439V1.898h18.004c4.593 0 8.541-.947 11.843-2.84 3.303-1.895 5.842-4.493 7.618-7.795 1.775-3.303 2.663-7.038 2.663-11.204 0-4.214-.888-7.967-2.663-11.257-1.776-3.291-4.315-5.883-7.618-7.777-3.302-1.894-7.262-2.841-11.878-2.841h-22.408Zm135.192 72.728h-20.17v-72.727h21.733c6.818 0 12.654 1.438 17.507 4.314 4.853 2.877 8.576 7.014 11.168 12.412 2.593 5.397 3.877 11.86 3.853 19.389-.023 11.53-3.006 20.514-8.949 26.953-5.942 6.44-14.323 9.659-25.142 9.659Zm51.421-72.727V30.91h25.532c7.031 0 12.346-1.752 15.945-5.256 3.599-3.503 5.398-8.037 5.398-13.6 0-3.528-.663-6.617-1.989-9.269-1.326-2.651-3.06-4.753-5.202-6.303-2.143-1.55-4.469-2.42-6.978-2.61v-.426c3.385-.876 6.12-2.74 8.203-5.593 2.083-2.853 3.125-6.493 3.125-10.92 0-5.587-1.752-10.11-5.256-13.566-3.504-3.456-8.558-5.184-15.163-5.184h-23.615ZM375.848-2.221H357.95v-35.476h17.862c5.611 0 9.991 1.67 13.14 5.007 3.148 3.338 4.723 7.588 4.723 12.749 0 5.137-1.575 9.375-4.723 12.713-3.149 3.338-7.517 5.007-13.104 5.007Zm97.124 29.013h15.554c9.73 0 17.158-2.877 22.283-8.63 5.125-5.752 7.664-13.707 7.617-23.863-.023-9.99-2.468-17.821-7.333-23.491-4.865-5.67-11.867-8.505-21.005-8.505h-17.116v64.489Zm92.294-34.837h-20.703v-29.652h19.176c5.161 0 9.138 1.308 11.931 3.924 2.794 2.616 4.191 6.185 4.191 10.707 0 4.167-1.273 7.712-3.818 10.635-2.545 2.924-6.137 4.386-10.777 4.386ZM413.845 51.01c1.065.237 2.143.355 3.232.355 6.202 0 10.665-3.728 13.387-11.186l23.012-63.813h-4.652l-17.33 48.97h-.355l-17.329-48.97h-4.652l19.992 55.29-2.485 6.82c-1.492 4.119-3.427 6.77-5.806 7.953-2.38 1.184-5.25 1.137-8.612-.142l-1.278 3.8c.852.38 1.811.687 2.876.923Zm151.811-24.218h-21.093V-3.997h21.235c3.338 0 6.274.699 8.807 2.096 2.533 1.396 4.516 3.308 5.948 5.735 1.433 2.426 2.149 5.167 2.149 8.22 0 4.333-1.474 7.872-4.421 10.618-2.948 2.747-7.156 4.12-12.625 4.12ZM77.364 89.184v72.727h2.272v-30.256H98.67c4.072 0 7.677-.905 10.814-2.716 3.136-1.811 5.598-4.309 7.386-7.493 1.787-3.184 2.681-6.836 2.681-10.955 0-4.167-.894-7.848-2.681-11.044-1.788-3.196-4.25-5.706-7.386-7.529-3.137-1.823-6.742-2.734-10.814-2.734H77.364Zm131.96 72.727H190.29V89.184h20.88c6.7 0 12.435 1.438 17.206 4.314 4.77 2.877 8.428 7.002 10.973 12.376s3.805 11.837 3.782 19.389c-.024 11.601-2.995 20.609-8.914 27.025-5.919 6.415-14.216 9.623-24.893 9.623Zm52.415-72.727v72.727h25.142c6.25 0 11.127-1.699 14.63-5.096 3.504-3.397 5.256-7.901 5.256-13.512 0-3.385-.61-6.404-1.829-9.055-1.219-2.652-2.882-4.783-4.989-6.392-2.107-1.61-4.475-2.522-7.102-2.735v-.284c3.527-.899 6.256-2.918 8.185-6.054 1.929-3.137 2.894-6.848 2.894-11.133 0-5.729-1.716-10.239-5.149-13.53-3.433-3.291-8.203-4.936-14.311-4.936h-22.727ZM98.67 129.383H79.636V91.457H98.67c3.646 0 6.866.81 9.659 2.432 2.794 1.622 4.984 3.865 6.57 6.729 1.586 2.865 2.379 6.156 2.379 9.873 0 3.693-.793 6.96-2.379 9.801-1.586 2.841-3.776 5.066-6.57 6.676-2.793 1.61-6.013 2.415-9.659 2.415Zm93.893 30.255h16.761c10.085 0 17.874-3.036 23.366-9.108 5.493-6.073 8.215-14.495 8.168-25.267-.024-10.606-2.622-18.892-7.795-24.858-5.173-5.965-12.47-8.948-21.893-8.948h-18.607v68.181Zm94.318-35.795h-22.87V91.457h20.455c5.303 0 9.493 1.408 12.571 4.225 3.077 2.818 4.616 6.807 4.616 11.968 0 2.888-.544 5.563-1.633 8.025-1.089 2.462-2.723 4.439-4.901 5.931-2.178 1.491-4.924 2.237-8.238 2.237ZM132.69 180.945c2.178.947 4.214 1.42 6.108 1.42 5.54 0 9.565-3.503 12.074-10.511l22.941-64.488h-2.415l-18.466 51.704h-.284l-18.466-51.704h-2.415l19.886 55.539-2.912 8.097c-1.695 4.712-4.044 7.61-7.049 8.694-2.324.839-5.041.592-8.15-.74l-.852 1.989Zm154.191-21.307h-22.87v-33.522h22.87c3.433 0 6.469.734 9.108 2.201 2.64 1.468 4.718 3.492 6.233 6.073 1.515 2.58 2.272 5.551 2.272 8.913 0 4.901-1.604 8.848-4.811 11.843-3.208 2.995-7.475 4.492-12.802 4.492Zm69.454-70.454-12.074 72.727h8.807l4.403-26.562h15.91c5.634 0 10.434-1.042 14.399-3.125 3.966-2.084 7.115-4.877 9.446-8.381 2.332-3.504 3.853-7.386 4.564-11.648.71-4.309.479-8.203-.693-11.683-1.172-3.48-3.409-6.238-6.711-8.274-3.303-2.036-7.795-3.054-13.477-3.054h-24.574Zm129.688 72.727h-22.728l12.074-72.727h23.154c7.055 0 12.873 1.479 17.454 4.439 4.581 2.959 7.777 7.185 9.588 12.677 1.811 5.493 2.077 12.05.799 19.674-1.231 7.481-3.617 13.902-7.156 19.264-3.539 5.363-8.108 9.482-13.707 12.358-5.599 2.877-12.092 4.315-19.478 4.315Zm61.221-72.727-12.074 72.727h26.279c5.729 0 10.523-.852 14.382-2.557 3.859-1.704 6.865-4.013 9.02-6.924 2.154-2.912 3.539-6.191 4.155-9.837.615-3.835.378-7.079-.711-9.73-1.089-2.652-2.639-4.688-4.652-6.108-2.012-1.421-4.107-2.202-6.285-2.344l.142-.71c3.196-.852 6.167-2.427 8.913-4.723 2.747-2.297 4.511-5.789 5.292-10.476.615-3.551.367-6.789-.746-9.712-1.113-2.924-3.172-5.256-6.179-6.996-3.007-1.74-7.043-2.61-12.11-2.61h-25.426Zm-172.869 38.352h-15.59l5.078-30.54h15.483c5.895 0 9.843 1.433 11.843 4.297 2.001 2.865 2.646 6.499 1.936 10.902-.71 4.333-2.557 7.972-5.54 10.92-2.983 2.947-7.386 4.421-13.21 4.421Zm99.041 26.563h12.891c9.02 0 16.181-2.622 21.484-7.866 5.303-5.244 8.701-12.376 10.192-21.396 1.491-8.665.538-15.471-2.859-20.419-3.397-4.948-9.357-7.422-17.88-7.422h-14.382l-9.446 57.103Zm93.715-32.955h-16.336l3.978-24.148h16.619c4.829 0 8.167 1.119 10.014 3.356 1.847 2.237 2.486 4.954 1.918 8.15-.379 2.557-1.349 4.782-2.912 6.676-1.563 1.894-3.504 3.362-5.824 4.404-2.32 1.041-4.806 1.562-7.457 1.562ZM404.79 182.028c1.078.225 2.326.337 3.747.337 3.693 0 7.061-1.006 10.103-3.018 3.042-2.012 5.735-5.197 8.079-9.553l33.451-62.428h-9.446l-22.301 43.608h-.568l-7.813-43.608h-8.735l10.937 54.545-2.344 4.261c-1.515 2.746-2.965 4.765-4.35 6.055-1.385 1.29-2.841 2.036-4.368 2.237-1.527.202-3.261.042-5.202-.479l-3.409 7.386c.402.213 1.142.432 2.219.657Zm157.937-27.929h-17.471l4.261-25.285h17.898c3.172 0 5.806.634 7.901 1.9 2.095 1.267 3.599 2.948 4.51 5.043.911 2.095 1.178 4.374.799 6.836-.568 3.196-2.255 5.913-5.06 8.15-2.805 2.237-7.085 3.356-12.838 3.356Z" fill="#212529"/></g></g></svg>